<svg data-style="animated" width="193" height="64" viewBox="0 0 193 64" fill="none"
  xmlns="http://www.w3.org/2000/svg">
  <defs>
    <style>
      :root {
        --animationDelay: 0.357s;
        --animationSpeedIncrease: 2;
        --animationSpeedIncrease2: 3;
        --animationWordmarkDelayOffset: calc(2 * var(--animationDelay));
      }
      <!-- ICON -->

      @keyframes icon {
        0% { opacity: 0; }
        25% { opacity: 1; }
        75% { opacity: 0; }
        100% { opacity: 1; }
      }

      .icon-wrapper .icon {
        opacity: 0;
        animation-name: icon;
        animation-timing-function: ease-in-out;
        animation-iteration-count: 1;
        animation-duration: 1.625s;
        animation-fill-mode: forwards;
      }

      .icon-wrapper .icon-part-00 { animation-delay: 0s; }
      .icon-wrapper .icon-part-01 { animation-delay: calc(var(--animationDelay) / var(--animationSpeedIncrease)); } 
      .icon-wrapper .icon-part-02 { animation-delay: calc((var(--animationDelay) * 2) / var(--animationSpeedIncrease)); }
      .icon-wrapper .icon-part-03 { animation-delay: calc((var(--animationDelay) * 3) / var(--animationSpeedIncrease)); }
      .icon-wrapper .icon-part-04 { animation-delay: calc((var(--animationDelay) * 4) / var(--animationSpeedIncrease)); }
      .icon-wrapper .icon-part-05 { animation-delay: calc((var(--animationDelay) * 5) / var(--animationSpeedIncrease)); }
      .icon-wrapper .icon-part-06 { animation-delay: calc((var(--animationDelay) * 6) / var(--animationSpeedIncrease)); } 
    

      <!-- WORDMARK -->

      @keyframes kadena {
        0% { opacity: 0; transform: translate(0, -8px); }
        100% { opacity: 1; transform: translate(0, 0); }
      }

      .kadena-wrapper .wordmark {
        opacity: 0;
        transform: translate(0, -8px);
        animation-name: kadena;
        animation-timing-function: ease-in-out;
        animation-iteration-count: 1;
        animation-duration: 1s;
        animation-fill-mode: forwards;
      }

      .kadena-wrapper .wordmark-part-00 { animation-delay: calc(0s + var(--animationWordmarkDelayOffset)); }
      .kadena-wrapper .wordmark-part-01 { animation-delay: calc(((var(--animationDelay) * 1) / var(--animationSpeedIncrease2)) + var(--animationWordmarkDelayOffset)); } 
      .kadena-wrapper .wordmark-part-02 { animation-delay: calc(((var(--animationDelay) * 2) / var(--animationSpeedIncrease2)) + var(--animationWordmarkDelayOffset)); }
      .kadena-wrapper .wordmark-part-03 { animation-delay: calc(((var(--animationDelay) * 3) / var(--animationSpeedIncrease2)) + var(--animationWordmarkDelayOffset)); }
      .kadena-wrapper .wordmark-part-04 { animation-delay: calc(((var(--animationDelay) * 4) / var(--animationSpeedIncrease2)) + var(--animationWordmarkDelayOffset)); }
      .kadena-wrapper .wordmark-part-05 { animation-delay: calc(((var(--animationDelay) * 5) / var(--animationSpeedIncrease2)) + var(--animationWordmarkDelayOffset)); }


      <!-- PRODUCT NAME -->

      @keyframes productName {
        0% { opacity: 0; transform: translate(-8px, 0); }
        100% { opacity: 1; transform: translate(0, 0); }
      }

      .spirekey-wrapper .product-name {
        opacity: 0;
        transform: translate(-8px, 0);
        animation-name: productName;
        animation-timing-function: ease-in-out;
        animation-iteration-count: 1;
        animation-duration: 1.625s;
        animation-fill-mode: forwards;
      }

      .spirekey-wrapper .product-name-part-00 { animation-delay: 0s; }
      .spirekey-wrapper .product-name-part-01 { animation-delay: calc(var(--animationDelay) * 1); } 
      .spirekey-wrapper .product-name-part-02 { animation-delay: calc(var(--animationDelay) * 1.25); }
      .spirekey-wrapper .product-name-part-03 { animation-delay: calc(var(--animationDelay) * 1.5); }
      .spirekey-wrapper .product-name-part-04 { animation-delay: calc(var(--animationDelay) * 1.75); }
      .spirekey-wrapper .product-name-part-05 { animation-delay: calc(var(--animationDelay) * 2); }
      .spirekey-wrapper .product-name-part-06 { animation-delay: calc(var(--animationDelay) * 2.25); }
      .spirekey-wrapper .product-name-part-07 { animation-delay: calc(var(--animationDelay) * 2.5); }
    </style>
  </defs>


  <g class="icon-wrapper">
    <path class="icon icon-part-00" id="{kda.foundation.color.icon.brand.logo.default}" d="M15.2,45.3l4.7-2.3-1,5-3.7-2.7Z" fill="#4A9079"/>
    <path class="icon icon-part-01" id="{kda.foundation.color.icon.brand.logo.default}" d="M20.7,38.6l-12.7,1.5,1.5-4.6h11.8l-.6,3.1Z" fill="#4A9079"/>
    <polygon class="icon icon-part-02" id="{kda.foundation.color.icon.brand.logo.default}" points="20.7 28.7 13.3 23.7 11.9 28.1 21.4 35.5 23.9 34.6 20.7 28.7" fill="#4A9079"/>
    <polygon class="icon icon-part-03" id="{kda.foundation.color.icon.brand.logo.default}" points="23.5 19.3 23.5 33.8 23.9 34.6 25.7 34 27.4 34.6 27.9 33.8 27.9 19.3 23.5 19.3" fill="#4A9079"/>
    <polygon class="icon icon-part-04" id="{kda.foundation.color.icon.brand.logo.default}" points="30.6 28.7 38 23.7 39.4 28.1 30 35.5 27.4 34.6 30.6 28.7" fill="#4A9079"/>
    <path class="icon icon-part-05" id="{kda.foundation.color.icon.brand.logo.default}" d="M30,35.5h11.8s1.5,4.6,1.5,4.6l-12.7-1.5-.6-3.1Z" fill="#4A9079"/>
    <path class="icon icon-part-06" id="{kda.foundation.color.icon.brand.logo.default}" d="M32.5,48l-1-5,4.7,2.3-3.7,2.7Z" fill="#4A9079"/>
  </g>

  <g class="kadena-wrapper">
    <path class="wordmark wordmark-part-00" id="{kda.foundation.color.text.brand.wordmark.default}" d="M50.1622 15.9311V10.527H50.9892V12.7731H51.1168C51.4529 12.401 52.1223 11.6527 53.1251 10.527H54.208C53.8018 10.9746 52.9928 11.8612 51.7789 13.1873C52.1998 13.6443 53.0396 14.5589 54.2982 15.9311H53.1779C52.8371 15.549 52.1497 14.7854 51.1175 13.6396H50.9899V15.9311H50.1628H50.1622Z" fill="#0F0F0F"/>
    <path class="wordmark wordmark-part-01" id="{kda.foundation.color.text.brand.wordmark.default}" d="M54.5234 15.9311C54.7792 15.0319 55.2903 13.2301 56.0573 10.527H57.5237C57.7796 11.4263 58.2907 13.2281 59.0576 15.9311H58.2005C58.1403 15.72 58.0221 15.2958 57.8471 14.6571H55.7339C55.6791 14.8675 55.5609 15.2924 55.3805 15.9311H54.5234ZM55.945 13.8888H57.6373C57.507 13.4118 57.2458 12.4645 56.8556 11.0475H56.728C56.5978 11.5198 56.3372 12.4671 55.9464 13.8888H55.945Z" fill="#0F0F0F"/>
    <path class="wordmark wordmark-part-02" id="{kda.foundation.color.text.brand.wordmark.default}" d="M59.5854 15.9311V10.527H61.7433C62.4601 10.527 63.0093 10.7108 63.3901 11.0769C63.7756 11.4436 63.9693 11.9941 63.9693 12.727V13.7371C63.9693 14.476 63.7762 15.0259 63.3901 15.3873C63.0093 15.7487 62.4601 15.9298 61.7433 15.9298H59.5854V15.9311ZM60.4272 15.1775H61.7506C62.2169 15.1775 62.5623 15.0599 62.7888 14.8234C63.0146 14.5823 63.1269 14.2282 63.1269 13.7605V12.6976C63.1269 12.2253 63.014 11.8732 62.7888 11.6421C62.563 11.4116 62.2176 11.2953 61.7506 11.2953H60.4272V15.1775Z" fill="#0F0F0F"/>
    <path class="wordmark wordmark-part-03" id="{kda.foundation.color.text.brand.wordmark.default}" d="M64.9086 15.9311V10.527H68.3005V11.2886H65.7364V12.8339H68.0907V13.5955H65.7364V15.1782H68.3385V15.9324H64.9093L64.9086 15.9311Z" fill="#0F0F0F"/>
    <path class="wordmark wordmark-part-04" id="{kda.foundation.color.text.brand.wordmark.default}" d="M69.2111 15.9311V10.527H70.8131C71.0536 11.3361 71.54 12.9515 72.2722 15.3733H72.3998V10.527H73.2195V15.9311H71.6175C71.377 15.1221 70.8906 13.504 70.1584 11.0769H70.0308V15.9311H69.2111Z" fill="#0F0F0F"/>
    <path class="wordmark wordmark-part-05" id="{kda.foundation.color.text.brand.wordmark.default}" d="M73.9477 15.9311C74.2036 15.0319 74.7146 13.2301 75.4816 10.527H76.948C77.2039 11.4263 77.715 13.2281 78.4819 15.9311H77.6248C77.5647 15.72 77.4464 15.2958 77.2714 14.6571H75.1589C75.1041 14.8675 74.9859 15.2924 74.8055 15.9311H73.9484H73.9477ZM75.3687 13.8888H77.0609C76.9307 13.4118 76.6701 12.4645 76.2793 11.0475H76.1517C76.0214 11.5198 75.7609 12.4671 75.37 13.8888H75.3687Z" fill="#0F0F0F"/>
  </g>

  <g class="spirekey-wrapper">
    <path class="product-name product-name-part-00" id="{kda.foundation.color.text.brand.wordmark.default}" d="M57.7,44.9c-1.7,0-3.3-.3-4.6-.9-1.3-.6-2.4-1.5-3.1-2.7-.7-1.2-1.1-2.5-1.1-4.2v-.9h4.2v.9c0,1.3.4,2.4,1.2,3,.8.7,2,1,3.4,1s2.5-.3,3.2-.9c.7-.6,1.1-1.3,1.1-2.2s-.2-1.1-.5-1.5c-.3-.4-.9-.7-1.5-.9-.7-.3-1.5-.5-2.4-.7l-.7-.2c-1.5-.3-2.9-.8-4-1.3-1.1-.5-1.9-1.2-2.5-2.1-.6-.9-.9-2-.9-3.3s.3-2.5,1-3.5c.7-1,1.6-1.7,2.8-2.2,1.2-.5,2.6-.8,4.2-.8s3,.3,4.3.8c1.3.5,2.2,1.3,2.9,2.4.7,1.1,1.1,2.4,1.1,4v1h-4.2v-1c0-.9-.2-1.5-.5-2-.3-.5-.8-.9-1.4-1.2-.6-.3-1.4-.4-2.2-.4-1.3,0-2.2.2-2.8.7-.6.5-.9,1.1-.9,2s.1,1,.4,1.4c.3.4.7.7,1.3,1s1.3.5,2.2.7l.7.2c1.6.3,3,.8,4.2,1.3,1.2.5,2.1,1.2,2.8,2.1.7.9,1,2,1,3.4s-.4,2.6-1.1,3.6c-.7,1-1.7,1.8-2.9,2.4-1.3.6-2.8.9-4.5.9Z" fill="#0F0F0F"/>
    <path class="product-name product-name-part-01" id="{kda.foundation.color.text.brand.wordmark.default}" d="M69.4,50.9v-22.3h4v1.9h.6c.4-.6.9-1.2,1.7-1.6.8-.5,1.9-.7,3.3-.7s2.5.3,3.6,1c1.1.6,2,1.5,2.6,2.8.7,1.2,1,2.7,1,4.4v.5c0,1.7-.3,3.2-1,4.4-.7,1.2-1.5,2.1-2.6,2.8-1.1.6-2.3.9-3.6.9s-1.8-.1-2.4-.4c-.6-.2-1.2-.5-1.6-.8-.4-.4-.7-.7-.9-1.1h-.6v8.2h-4ZM77.8,41.4c1.3,0,2.3-.4,3.1-1.2.8-.8,1.2-2,1.2-3.5v-.3c0-1.5-.4-2.7-1.2-3.5-.8-.8-1.9-1.2-3.1-1.2s-2.3.4-3.1,1.2c-.8.8-1.2,2-1.2,3.5v.3c0,1.5.4,2.7,1.2,3.5.8.8,1.9,1.2,3.1,1.2Z" fill="#0F0F0F"/>
    <path class="product-name product-name-part-02" id="{kda.foundation.color.text.brand.wordmark.default}" d="M89.8,44.5v-15.9h4v15.9h-4ZM91.9,26.7c-.7,0-1.3-.2-1.9-.7-.5-.5-.7-1.1-.7-1.9s.2-1.4.7-1.9c.5-.5,1.1-.7,1.9-.7s1.4.2,1.9.7c.5.5.7,1.1.7,1.9s-.2,1.4-.7,1.9c-.5.5-1.1.7-1.9.7Z" fill="#0F0F0F"/>
    <path class="product-name product-name-part-03" id="{kda.foundation.color.text.brand.wordmark.default}" d="M98.3,44.5v-15.9h4v1.8h.6c.2-.6.6-1.1,1.2-1.4.6-.3,1.2-.4,1.9-.4h1.9v3.6h-2c-1,0-1.9.3-2.5.8-.7.5-1,1.4-1,2.5v9h-4Z" fill="#0F0F0F"/>
    <path class="product-name product-name-part-04" id="{kda.foundation.color.text.brand.wordmark.default}" d="M117.7,44.9c-1.6,0-3-.3-4.2-1-1.2-.7-2.1-1.6-2.8-2.8-.7-1.2-1-2.7-1-4.4v-.4c0-1.7.3-3.1,1-4.3.7-1.2,1.6-2.2,2.8-2.8,1.2-.7,2.6-1,4.2-1s2.9.4,4.1,1.1c1.2.7,2,1.6,2.7,2.9.6,1.2,1,2.6,1,4.3v1.4h-11.6c0,1.1.4,2,1.2,2.7.8.7,1.7,1,2.8,1s2-.2,2.5-.7c.5-.5.9-1,1.2-1.6l3.3,1.7c-.3.6-.7,1.2-1.3,1.8-.6.6-1.3,1.2-2.2,1.7-.9.4-2.1.7-3.6.7ZM113.8,34.7h7.4c0-.9-.5-1.7-1.1-2.2-.6-.6-1.5-.8-2.5-.8s-2,.3-2.6.8c-.6.6-1,1.3-1.2,2.2Z" fill="#0F0F0F"/>
    <polygon class="product-name product-name-part-05" id="{kda.foundation.color.text.brand.wordmark.default}" points="128.8 44.5 128.8 22.1 133 22.1 133 31 133.6 31 140.9 22.1 146.3 22.1 136.9 33.1 146.6 44.5 141 44.5 133.6 35.4 133 35.4 133 44.5 128.8 44.5" fill="#0F0F0F"/>
    <path class="product-name product-name-part-06" id="{kda.foundation.color.text.brand.wordmark.default}" d="M155.7,44.9c-1.6,0-3-.3-4.2-1-1.2-.7-2.1-1.6-2.8-2.8-.7-1.2-1-2.7-1-4.4v-.4c0-1.7.3-3.1,1-4.3.7-1.2,1.6-2.2,2.8-2.8,1.2-.7,2.6-1,4.2-1s2.9.4,4.1,1.1c1.2.7,2,1.6,2.7,2.9.6,1.2,1,2.6,1,4.3v1.4h-11.6c0,1.1.4,2,1.2,2.7.8.7,1.7,1,2.8,1s2-.2,2.5-.7c.5-.5.9-1,1.2-1.6l3.3,1.7c-.3.6-.7,1.2-1.3,1.8-.6.6-1.3,1.2-2.2,1.7-.9.4-2.1.7-3.6.7ZM151.9,34.7h7.4c0-.9-.5-1.7-1.1-2.2-.6-.6-1.5-.8-2.5-.8s-2,.3-2.6.8c-.6.6-1,1.3-1.2,2.2Z" fill="#0F0F0F"/>
    <path class="product-name product-name-part-07" id="{kda.foundation.color.text.brand.wordmark.default}" d="M168.7,50.9v-3.5h8.6c.6,0,.9-.3.9-1v-4h-.6c-.2.4-.4.7-.8,1.1-.4.4-.9.7-1.5.9-.6.2-1.4.4-2.4.4s-2.3-.3-3.3-.8c-.9-.6-1.6-1.4-2.1-2.4-.5-1-.8-2.2-.8-3.5v-9.5h4v9.2c0,1.2.3,2.1.9,2.7.6.6,1.4.9,2.5.9s2.2-.4,2.9-1.2c.7-.8,1-2,1-3.5v-8.1h4v18.7c0,1.1-.3,2-1,2.6-.6.7-1.5,1-2.6,1h-10Z" fill="#0F0F0F"/>
  </g>
</svg>
