<svg data-style="animated"
     xmlns="http://www.w3.org/2000/svg"
     viewBox="0 0 300 300">
  <style>
    #eQLD7BE0dpf6_to {
    animation: eQLD7BE0dpf6_to__to 2000ms linear infinite normal forwards
    }

    @keyframes eQLD7BE0dpf6_to__to {
    0% {
    transform: translate(150.999px, 106.934px)
    }

    48.35% {
    transform: translate(150.999px, 106.934px);
    animation-timing-function: cubic-bezier(0.21, 0, 0.15, 1)
    }

    85% {
    transform: translate(150.999px, 85.559px)
    }

    100% {
    transform: translate(150.999px, 85.559px)
    }
    }

    #eQLD7BE0dpf6 {
    animation: eQLD7BE0dpf6_c_o 2000ms linear infinite normal forwards
    }

    @keyframes eQLD7BE0dpf6_c_o {
    0% {
    opacity: 0.01
    }

    48.35% {
    opacity: 0.01;
    animation-timing-function: cubic-bezier(0.333, 0, 0.667, 1)
    }

    61.65% {
    opacity: 1
    }

    100% {
    opacity: 1
    }
    }

    #eQLD7BE0dpf8_to {
    animation: eQLD7BE0dpf8_to__to 2000ms linear infinite normal forwards
    }

    @keyframes eQLD7BE0dpf8_to__to {
    0% {
    transform: translate(115.176px, 126.968px)
    }

    40% {
    transform: translate(115.176px, 126.968px);
    animation-timing-function: cubic-bezier(0.21, 0, 0.15, 1)
    }

    83.35% {
    transform: translate(96.926px, 137.593px)
    }

    100% {
    transform: translate(96.926px, 137.593px)
    }
    }

    #eQLD7BE0dpf10_to {
    animation:
    eQLD7BE0dpf10_to__to 2000ms linear infinite normal forwards
    }

    @keyframes eQLD7BE0dpf10_to__to {
    0% {
    transform: translate(133.701px, 179.252px)
    }

    50% {
    transform: translate(133.701px, 179.252px);
    animation-timing-function:
    cubic-bezier(0.21, 0, 0.15, 1)
    }

    96.65% {
    transform: translate(114.951px, 189.627px)
    }

    100% {
    transform: translate(114.951px, 189.627px)
    }
    }

    #eQLD7BE0dpf12_to {
    animation: eQLD7BE0dpf12_to__to 2000ms linear infinite normal forwards
    }

    @keyframes eQLD7BE0dpf12_to__to {
    0% {
    transform: translate(186.824px, 126.968px)
    }

    40% {
    transform: translate(186.824px, 126.968px);
    animation-timing-function: cubic-bezier(0.21, 0, 0.15, 1)
    }

    83.35% {
    transform: translate(205.074px, 137.593px)
    }

    100% {
    transform: translate(205.074px, 137.593px)
    }
    }

    #eQLD7BE0dpf14_to {
    animation: eQLD7BE0dpf14_to__to 2000ms linear infinite normal forwards
    }

    @keyframes eQLD7BE0dpf14_to__to {
    0% {
    transform: translate(168.175px, 179.377px)
    }

    50% {
    transform: translate(168.175px, 179.377px);
    animation-timing-function:
    cubic-bezier(0.21, 0, 0.15, 1)
    }

    96.65% {
    transform: translate(187.05px, 189.627px)
    }

    100% {
    transform: translate(187.05px, 189.627px)
    }
    }

    #eQLD7BE0dpf16_to {
    animation: eQLD7BE0dpf16_to__to 2000ms linear infinite normal forwards
    }

    @keyframes eQLD7BE0dpf16_to__to {
    0% {
    transform: translate(150.999px, 85.559px);
    animation-timing-function:
    cubic-bezier(0.85, 0, 0.79, 1)
    }

    53.35% {
    transform: translate(150.999px, 30.586px)
    }

    100% {
    transform: translate(150.999px, 30.586px)
    }
    }

    #eQLD7BE0dpf16 {
    animation: eQLD7BE0dpf16_c_o 2000ms linear infinite normal forwards
    }

    @keyframes eQLD7BE0dpf16_c_o {
    0% {
    opacity: 1
    }

    20% {
    opacity: 1;
    animation-timing-function:
    cubic-bezier(0.85, 0, 0.79, 1)
    }

    53.35% {
    opacity: 0
    }

    100% {
    opacity: 0
    }
    }

    #eQLD7BE0dpf18_to {
    animation: eQLD7BE0dpf18_to__to 2000ms linear infinite normal forwards
    }

    @keyframes eQLD7BE0dpf18_to__to {
    0% {
    transform: translate(96.926px, 137.593px)
    }

    16.65% {
    transform: translate(96.926px, 137.593px);
    animation-timing-function:
    cubic-bezier(0.85, 0, 0.79, 1)
    }

    60% {
    transform: translate(42.476px, 169.53px)
    }

    100% {
    transform: translate(42.476px, 169.53px)
    }
    }

    #eQLD7BE0dpf18 {
    animation: eQLD7BE0dpf18_c_o 2000ms linear infinite normal forwards
    }

    @keyframes eQLD7BE0dpf18_c_o {
    0% {
    opacity: 1
    }

    38.35% {
    opacity: 1;
    animation-timing-function:
    cubic-bezier(0.85, 0, 0.79, 1)
    }

    60% {
    opacity: 0
    }

    100% {
    opacity: 0
    }
    }

    #eQLD7BE0dpf20_to {
    animation: eQLD7BE0dpf20_to__to 2000ms linear infinite normal forwards
    }

    @keyframes eQLD7BE0dpf20_to__to {
    0% {
    transform: translate(114.951px, 189.627px)
    }

    38.35% {
    transform: translate(114.951px, 189.627px);
    animation-timing-function:
    cubic-bezier(0.85, 0, 0.79, 1)
    }

    85% {
    transform: translate(78.451px, 211.752px)
    }

    100% {
    transform: translate(78.451px, 211.752px)
    }
    }

    #eQLD7BE0dpf20 {
    animation: eQLD7BE0dpf20_c_o 2000ms linear infinite normal forwards
    }

    @keyframes eQLD7BE0dpf20_c_o {
    0% {
    opacity: 1
    }

    60% {
    opacity: 1;
    animation-timing-function:
    cubic-bezier(0.85, 0, 0.79, 1)
    }

    85% {
    opacity: 0
    }

    100% {
    opacity: 0
    }
    }

    #eQLD7BE0dpf22_to {
    animation: eQLD7BE0dpf22_to__to 2000ms linear infinite normal forwards
    }

    @keyframes eQLD7BE0dpf22_to__to {
    0% {
    transform: translate(205.074px, 137.593px)
    }

    16.65% {
    transform: translate(205.074px, 137.593px);
    animation-timing-function:
    cubic-bezier(0.85, 0, 0.79, 1)
    }

    60% {
    transform: translate(259.767px, 169.507px)
    }

    100% {
    transform: translate(259.767px, 169.507px)
    }
    }

    #eQLD7BE0dpf22 {
    animation: eQLD7BE0dpf22_c_o 2000ms linear infinite normal forwards
    }

    @keyframes eQLD7BE0dpf22_c_o {
    0% {
    opacity: 1
    }

    38.35% {
    opacity: 1;
    animation-timing-function:
    cubic-bezier(0.85, 0, 0.79, 1)
    }

    60% {
    opacity: 0
    }

    100% {
    opacity: 0
    }
    }

    #eQLD7BE0dpf24_to {
    animation: eQLD7BE0dpf24_to__to 2000ms linear infinite normal forwards
    }

    @keyframes eQLD7BE0dpf24_to__to {
    0% {
    transform:
    translate(187.05px, 189.627px)
    }

    38.35% {
    transform: translate(187.05px, 189.627px);
    animation-timing-function:
    cubic-bezier(0.85, 0, 0.79, 1)
    }

    83.35% {
    transform: translate(222.8px, 212.002px)
    }

    100% {
    transform: translate(222.8px, 212.002px)
    }
    }

    #eQLD7BE0dpf24 {
    animation: eQLD7BE0dpf24_c_o 2000ms linear infinite normal forwards
    }

    @keyframes eQLD7BE0dpf24_c_o {
    0% {
    opacity: 1
    }

    60% {
    opacity: 1;
    animation-timing-function:
    cubic-bezier(0.85, 0, 0.79, 1)
    }

    83.35% {
    opacity: 0
    }

    100% {
    opacity: 0
    }
    }
  </style>
  <g transform="matrix(.52 0 0 0.52 151.088 163.43)">
    <path
            d="M0,130.085c0,0-34.664-20.013-34.664-20.013s0-40.026,0-40.026.433.301.433.301-34.664-20.013-34.664-20.013s0-40.026,0-40.026s35.097-20.815,35.097-20.815-.866-39.526-.866-39.526-34.711,19.334-34.711,19.334-34.664-19.513-34.664-19.513s0-40.026,0-40.026s69.375-39.847,69.375-39.847s34.664,20.013,34.664,20.013s34.664-20.013,34.664-20.013s68.894,40.328,68.894,40.328s0,40.026,0,40.026-35.324,20.347-34.994,20.18-33.9-19.956-33.9-19.956.866,39,.866,39s33.845,20.815,33.845,20.815s0,40.026,0,40.026-34.663,19.781-34.663,19.781-.048-.069-.048-.069s0,40.026,0,40.026-34.664,20.013-34.664,20.013Z"
            fill="#4a9079" stroke-width="0"/>
  </g>
  <g transform="matrix(.52 0 0 0.52 150.999 106.373)">
    <path
            d="M-34.664,20.013c0,0,0-40.026,0-40.026s34.664-20.013,34.664-20.013s34.664,20.013,34.664,20.013s0,40.026,0,40.026-34.664,20.013-34.664,20.013-34.664-20.013-34.664-20.013Z"
            fill="#4a9079" stroke-width="0"/>
  </g>
  <g id="eQLD7BE0dpf6_to" transform="translate(150.999,106.934)">
    <g id="eQLD7BE0dpf6" transform="scale(0.52,0.52) translate(0,0)" opacity="0.01">
      <path
              d="M-34.664,20.013c0,0,0-40.026,0-40.026s34.664-20.013,34.664-20.013s34.664,20.013,34.664,20.013s0,40.026,0,40.026-34.664,20.013-34.664,20.013-34.664-20.013-34.664-20.013Z"
              fill="#fefdfd" stroke-width="0"/>
    </g>
  </g>
  <g id="eQLD7BE0dpf8_to" transform="translate(115.176,126.968)">
    <g transform="scale(0.52,0.52) translate(0,0)">
      <path
              d="M-34.664,20.013c0,0,0-40.026,0-40.026s34.664-20.013,34.664-20.013s34.664,20.013,34.664,20.013s0,40.026,0,40.026-34.664,20.013-34.664,20.013-34.664-20.013-34.664-20.013Z"
              fill="#4a9079" stroke-width="0"/>
    </g>
  </g>
  <g id="eQLD7BE0dpf10_to" transform="translate(133.701,179.252)">
    <g transform="scale(0.52,0.52) translate(0,0)">
      <path
              d="M-34.664,20.013c0,0,0-40.026,0-40.026s34.664-20.013,34.664-20.013s34.664,20.013,34.664,20.013s0,40.026,0,40.026-34.664,20.013-34.664,20.013-34.664-20.013-34.664-20.013Z"
              fill="#4a9079" stroke-width="0"/>
    </g>
  </g>
  <g id="eQLD7BE0dpf12_to" transform="translate(186.824,126.968)">
    <g transform="scale(0.52,0.52) translate(0,0)">
      <path
              d="M-34.664,20.013c0,0,0-40.026,0-40.026s34.664-20.013,34.664-20.013s34.664,20.013,34.664,20.013s0,40.026,0,40.026-34.664,20.013-34.664,20.013-34.664-20.013-34.664-20.013Z"
              fill="#4a9079" stroke-width="0"/>
    </g>
  </g>
  <g id="eQLD7BE0dpf14_to" transform="translate(168.175,179.377)">
    <g transform="scale(0.52,0.52) translate(0,0)">
      <path
              d="M-34.664,20.013c0,0,0-40.026,0-40.026s34.664-20.013,34.664-20.013s34.664,20.013,34.664,20.013s0,40.026,0,40.026-34.664,20.013-34.664,20.013-34.664-20.013-34.664-20.013Z"
              fill="#4a9079" stroke-width="0"/>
    </g>
  </g>
  <g id="eQLD7BE0dpf16_to" transform="translate(150.999,85.559)">
    <g id="eQLD7BE0dpf16" transform="scale(0.52,0.52) translate(0,0)">
      <path
              d="M-34.664,20.013c0,0,0-40.026,0-40.026s34.664-20.013,34.664-20.013s34.664,20.013,34.664,20.013s0,40.026,0,40.026-34.664,20.013-34.664,20.013-34.664-20.013-34.664-20.013Z"
              fill="#fefdfd" stroke-width="0"/>
    </g>
  </g>
  <g id="eQLD7BE0dpf18_to" transform="translate(96.926,137.593)">
    <g id="eQLD7BE0dpf18" transform="scale(0.52,0.52) translate(0,0)">
      <path
              d="M-34.664,20.013c0,0,0-40.026,0-40.026s34.664-20.013,34.664-20.013s34.664,20.013,34.664,20.013s0,40.026,0,40.026-34.664,20.013-34.664,20.013-34.664-20.013-34.664-20.013Z"
              fill="#4a9079" stroke-width="0"/>
    </g>
  </g>
  <g id="eQLD7BE0dpf20_to" transform="translate(114.951,189.627)">
    <g id="eQLD7BE0dpf20" transform="scale(0.52,0.52) translate(0,0)">
      <path
              d="M-34.664,20.013c0,0,0-40.026,0-40.026s34.664-20.013,34.664-20.013s34.664,20.013,34.664,20.013s0,40.026,0,40.026-34.664,20.013-34.664,20.013-34.664-20.013-34.664-20.013Z"
              fill="#4a9079" stroke-width="0"/>
    </g>
  </g>
  <g id="eQLD7BE0dpf22_to" transform="translate(205.074,137.593)">
    <g id="eQLD7BE0dpf22" transform="scale(0.52,0.52) translate(0,0)">
      <path
              d="M-34.664,20.013c0,0,0-40.026,0-40.026s34.664-20.013,34.664-20.013s34.664,20.013,34.664,20.013s0,40.026,0,40.026-34.664,20.013-34.664,20.013-34.664-20.013-34.664-20.013Z"
              fill="#4a9079" stroke-width="0"/>
    </g>
  </g>
  <g id="eQLD7BE0dpf24_to" transform="translate(187.05,189.627)">
    <g id="eQLD7BE0dpf24" transform="scale(0.52,0.52) translate(0,0)">
      <path
              d="M-34.664,20.013c0,0,0-40.026,0-40.026s34.664-20.013,34.664-20.013s34.664,20.013,34.664,20.013s0,40.026,0,40.026-34.664,20.013-34.664,20.013-34.664-20.013-34.664-20.013Z"
              fill="#4a9079" stroke-width="0"/>
    </g>
  </g>
</svg>
