<svg data-style="kdacolor" width="64" height="64" viewBox="0 0 64 64"
  xmlns="http://www.w3.org/2000/svg">
  <path d="M31.9971 31.9949V23.9967L38.9241 19.9976L45.853 23.9967V31.9949L38.9241 35.996L31.9971 31.9949Z" fill="#F0EAE6" id="{kda.foundation.color.brand.key.white}" />
  <path d="M18.1411 31.9957V23.9975L25.0681 19.9984L31.9971 23.9975V31.9957L25.0681 35.9968L18.1411 31.9957Z" fill="#F0EAE6" id="{kda.foundation.color.brand.key.white}" />
  <path d="M25.074 35.9925V27.9943L32.001 23.9952L38.9299 27.9943V35.9925L32.001 39.9936L25.074 35.9925Z" fill="#F0EAE6" id="{kda.foundation.color.brand.key.white}" />
  <path d="M25.0691 43.9928V35.9946L31.9961 31.9955L38.9251 35.9946V43.9928L31.9961 47.9939L25.0691 43.9928Z" fill="#F0EAE6" id="{kda.foundation.color.brand.key.white}" />
  
  <path d="M4.29102 48.0017V40.0035L11.218 36.0044L18.147 40.0035V48.0017L11.218 52.0028L4.29102 48.0017Z" fill="#4A9079" id="{kda.foundation.color.icon.brand.logo.default}" />
  <path d="M4.29102 32.0012V24.003L11.218 20.0039L18.147 24.003V32.0012L11.218 36.0023L4.29102 32.0012Z" fill="#4A9079" id="{kda.foundation.color.icon.brand.logo.default}" />
  <path d="M4.28516 24.002V16.0038L11.2121 12.0047L18.1411 16.0038V24.002L11.2121 28.0031L4.28516 24.002Z" fill="#4A9079" id="{kda.foundation.color.icon.brand.logo.default}" />
  <path d="M25.072 11.9973V3.9991L31.999 0L38.928 3.9991V11.9973L31.999 15.9984L25.072 11.9973Z" fill="#4A9079" id="{kda.foundation.color.icon.brand.logo.default}" />
  <path d="M11.218 19.9997V12.0015L18.145 8.00241L25.074 12.0015V19.9997L18.145 24.0008L11.218 19.9997Z" fill="#4A9079" id="{kda.foundation.color.icon.brand.logo.default}" />
  <path d="M18.145 55.9998V48.0016L25.072 44.0025L32.001 48.0016V55.9998L25.072 60.0009L18.145 55.9998Z" fill="#4A9079" id="{kda.foundation.color.icon.brand.logo.default}" />
  <path d="M25.0681 59.9911V51.9929L31.9951 47.9938L38.9241 51.9929V59.9911L31.9951 63.9922L25.0681 59.9911Z" fill="#4A9079" id="{kda.foundation.color.icon.brand.logo.default}" />
  <path d="M38.926 19.9954V11.9972L45.853 7.99811L52.782 11.9972V19.9954L45.853 23.9965L38.926 19.9954Z" fill="#4A9079" id="{kda.foundation.color.icon.brand.logo.default}" />
  <path d="M45.853 47.9953V39.9971L52.78 35.998L59.709 39.9971V47.9953L52.78 51.9964L45.853 47.9953Z" fill="#4A9079" id="{kda.foundation.color.icon.brand.logo.default}" />
  <path d="M31.999 55.9977V47.9995L38.926 44.0004L45.855 47.9995V55.9977L38.926 59.9988L31.999 55.9977Z" fill="#4A9079" id="{kda.foundation.color.icon.brand.logo.default}" />
  <path d="M45.853 31.9948V23.9965L52.78 19.9974L59.709 23.9965V31.9948L52.78 35.9959L45.853 31.9948Z" fill="#4A9079" id="{kda.foundation.color.icon.brand.logo.default}" />
  <path d="M45.8521 23.9944V15.9962L52.779 11.9971L59.708 15.9962V23.9944L52.779 27.9956L45.8521 23.9944Z" fill="#4A9079" id="{kda.foundation.color.icon.brand.logo.default}" />
</svg>
