<svg width="197" height="64" viewBox="0 0 197 64" data-style="kdacolor" xmlns="http://www.w3.org/2000/svg"><path id="{kda.foundation.color.icon.brand.logo.default}" d="M50.54 49.32H35.16L35.04 49.22L15.99 34.35L23.78 28.1L50.4 49.22L50.53 49.32H50.54Z" fill="#4A9079"/><path id="{kda.foundation.color.icon.brand.logo.default}" d="M50.54 6.88H35.16L35.04 6.98L15.99 21.85L23.78 28.1L50.41 6.98L50.54 6.88Z" fill="#4A9079"/><path id="{kda.foundation.color.icon.brand.logo.default}" d="M16 29.04V49.32H15.99L15.87 49.22L6.60996 41.89L6.58996 41.87L6.45996 41.77V14.43L6.58996 14.33L6.60996 14.31L15.88 6.98L16 6.89H16.01V21.85V29.05L16 29.04Z" fill="#4A9079"/><path id="{kda.foundation.color.text.brand.wordmark.inverse.default}" d="M58.03 40.73V15.47H61.9V25.97H62.5C64.07 24.23 67.2 20.73 71.89 15.47H76.95C75.05 17.56 71.27 21.71 65.6 27.91C67.57 30.05 71.49 34.32 77.38 40.74H72.14C70.55 38.95 67.34 35.38 62.51 30.03H61.91V40.74H58.04L58.03 40.73Z" fill="#F0EAE6"/><path id="{kda.foundation.color.text.brand.wordmark.inverse.default}" d="M78.42 40.73C79.61 36.53 82 28.11 85.59 15.47H92.45C93.64 19.67 96.04 28.09 99.62 40.73H95.61C95.33 39.74 94.78 37.76 93.96 34.78H84.08C83.82 35.77 83.27 37.75 82.43 40.73H78.42ZM85.06 31.18H92.97C92.36 28.95 91.14 24.52 89.32 17.9H88.72C88.11 20.11 86.89 24.54 85.07 31.18H85.06Z" fill="#F0EAE6"/><path id="{kda.foundation.color.text.brand.wordmark.inverse.default}" d="M102.07 40.73V15.47H112.16C115.51 15.47 118.08 16.33 119.86 18.04C121.66 19.76 122.57 22.33 122.57 25.76V30.48C122.57 33.93 121.67 36.5 119.86 38.2C118.08 39.89 115.51 40.73 112.16 40.73H102.07ZM106.01 37.2H112.2C114.38 37.2 116 36.65 117.05 35.55C118.11 34.42 118.63 32.77 118.63 30.58V25.61C118.63 23.4 118.1 21.76 117.05 20.68C115.99 19.6 114.38 19.06 112.2 19.06H106.01V37.2Z" fill="#F0EAE6"/><path id="{kda.foundation.color.text.brand.wordmark.inverse.default}" d="M126.96 40.73V15.47H142.81V19.03H130.82V26.25H141.82V29.81H130.82V37.21H142.98V40.73H126.95H126.96Z" fill="#F0EAE6"/><path id="{kda.foundation.color.text.brand.wordmark.inverse.default}" d="M147.07 40.73V15.47H154.56C155.68 19.25 157.96 26.8 161.38 38.12H161.98V15.47H165.81V40.73H158.32C157.2 36.95 154.92 29.39 151.5 18.04H150.9V40.73H147.07Z" fill="#F0EAE6"/><path id="{kda.foundation.color.text.brand.wordmark.inverse.default}" d="M169.21 40.73C170.41 36.53 172.79 28.11 176.38 15.47H183.24C184.43 19.67 186.82 28.09 190.41 40.73H186.4C186.12 39.74 185.57 37.76 184.75 34.78H174.87C174.61 35.77 174.06 37.75 173.22 40.73H169.21ZM175.85 31.18H183.76C183.15 28.95 181.93 24.52 180.11 17.9H179.51C178.9 20.11 177.68 24.54 175.86 31.18H175.85Z" fill="#F0EAE6"/><path id="{kda.foundation.color.text.brand.wordmark.inverse.default}" d="M153.82 57.91V56.98H155.03V50.19H153.82V49.26H157.19C158.33 49.26 159.2 49.55 159.83 50.12C160.45 50.7 160.76 51.58 160.76 52.78V54.39C160.76 55.59 160.45 56.48 159.83 57.05C159.21 57.62 158.33 57.91 157.19 57.91H153.82ZM156.07 56.97H157.19C158.03 56.97 158.66 56.76 159.09 56.35C159.52 55.94 159.73 55.3 159.73 54.43V52.74C159.73 51.86 159.52 51.22 159.09 50.81C158.66 50.41 158.03 50.2 157.19 50.2H156.07V56.96V56.97Z" fill="#F0EAE6"/><path id="{kda.foundation.color.text.brand.wordmark.inverse.default}" d="M167.03 58.08C166 58.08 165.18 57.78 164.57 57.18C163.96 56.58 163.65 55.71 163.65 54.57V52.59C163.65 51.45 163.96 50.58 164.57 49.98C165.18 49.38 166 49.08 167.03 49.08C168.06 49.08 168.89 49.38 169.51 49.98C170.12 50.58 170.43 51.45 170.43 52.59V54.57C170.43 55.71 170.12 56.59 169.51 57.18C168.9 57.78 168.07 58.08 167.03 58.08ZM167.03 57.16C167.78 57.16 168.36 56.94 168.77 56.49C169.18 56.04 169.39 55.42 169.39 54.62V52.57C169.39 51.77 169.18 51.15 168.77 50.7C168.36 50.25 167.78 50.03 167.03 50.03C166.28 50.03 165.71 50.25 165.3 50.7C164.89 51.15 164.68 51.77 164.68 52.57V54.62C164.68 55.42 164.89 56.04 165.3 56.49C165.71 56.94 166.29 57.16 167.03 57.16Z" fill="#F0EAE6"/><path id="{kda.foundation.color.text.brand.wordmark.inverse.default}" d="M176.77 58.08C175.74 58.08 174.92 57.78 174.31 57.18C173.7 56.58 173.4 55.71 173.4 54.57V52.59C173.4 51.45 173.7 50.58 174.31 49.98C174.92 49.38 175.74 49.08 176.77 49.08C177.8 49.08 178.58 49.36 179.12 49.93C179.67 50.5 179.94 51.28 179.94 52.26V52.32H178.92V52.22C178.92 51.57 178.75 51.04 178.39 50.62C178.04 50.2 177.5 50 176.77 50C176.04 50 175.47 50.22 175.05 50.67C174.64 51.12 174.43 51.75 174.43 52.55V54.58C174.43 55.39 174.64 56.01 175.05 56.46C175.46 56.91 176.03 57.13 176.77 57.13C177.51 57.13 178.04 56.92 178.39 56.51C178.74 56.09 178.92 55.56 178.92 54.91V54.71H179.94V54.87C179.94 55.86 179.67 56.64 179.12 57.2C178.57 57.77 177.79 58.05 176.77 58.05V58.08Z" fill="#F0EAE6"/><path id="{kda.foundation.color.text.brand.wordmark.inverse.default}" d="M185.93 58.08C185.31 58.08 184.74 57.97 184.25 57.75C183.76 57.53 183.37 57.19 183.08 56.74C182.79 56.29 182.65 55.73 182.65 55.05V54.79H183.68V55.05C183.68 55.77 183.89 56.3 184.31 56.65C184.73 57 185.27 57.18 185.93 57.18C186.59 57.18 187.12 57.03 187.47 56.72C187.82 56.42 188 56.03 188 55.57C188 55.25 187.92 54.99 187.76 54.8C187.6 54.61 187.38 54.46 187.09 54.34C186.8 54.22 186.46 54.12 186.08 54.02L185.44 53.86C184.94 53.73 184.49 53.57 184.11 53.38C183.72 53.19 183.42 52.94 183.2 52.63C182.98 52.32 182.87 51.92 182.87 51.44C182.87 50.96 182.99 50.53 183.23 50.18C183.47 49.83 183.81 49.55 184.26 49.36C184.71 49.17 185.21 49.08 185.79 49.08C186.37 49.08 186.9 49.18 187.36 49.38C187.82 49.58 188.19 49.88 188.46 50.27C188.73 50.66 188.86 51.15 188.86 51.75V52.27H187.83V51.75C187.83 51.33 187.74 50.99 187.56 50.74C187.38 50.49 187.14 50.3 186.83 50.17C186.52 50.05 186.17 49.99 185.77 49.99C185.2 49.99 184.74 50.11 184.4 50.37C184.05 50.62 183.88 50.98 183.88 51.44C183.88 51.74 183.95 51.99 184.1 52.18C184.25 52.37 184.46 52.52 184.73 52.64C185 52.76 185.33 52.86 185.71 52.96L186.35 53.12C186.85 53.23 187.3 53.37 187.7 53.56C188.1 53.75 188.42 54 188.66 54.31C188.9 54.63 189.02 55.04 189.02 55.55C189.02 56.06 188.89 56.51 188.64 56.88C188.38 57.26 188.02 57.55 187.56 57.76C187.1 57.97 186.55 58.07 185.92 58.07L185.93 58.08Z" fill="#F0EAE6"/></svg>