<svg data-style="kdacolor" width="197" height="64" viewBox="0 0 197 64"
  xmlns="http://www.w3.org/2000/svg">
  <path id="{kda.foundation.color.icon.brand.logo.default}" d="M58.0319 40.7277V15.4674H61.8971V25.9668H62.4942C64.0665 24.2297 67.1931 20.7299 71.8818 15.4674H76.9437C75.0445 17.5595 71.2617 21.7053 65.5899 27.9045C67.556 30.0404 71.483 34.3148 77.3657 40.7303H72.1289C70.536 38.9443 67.3244 35.3751 62.4967 30.0199H61.8997V40.7303H58.0345L58.0319 40.7277Z" fill="#F0EAE6"/>
  <path id="{kda.foundation.color.icon.brand.logo.default}" d="M78.4157 40.7277C79.6097 36.5254 82.0004 28.1027 85.5851 15.4674H92.4406C93.6346 19.6697 96.0279 28.0924 99.61 40.7277H95.6033C95.3202 39.7421 94.7721 37.758 93.9512 34.7729H84.0745C83.8172 35.7585 83.2639 37.7426 82.4224 40.7277H78.4157ZM85.0601 31.1804H92.9681C92.3582 28.9493 91.1385 24.5205 89.3139 17.8992H88.7169C88.107 20.1072 86.8872 24.536 85.0627 31.1804H85.0601Z" fill="#F0EAE6"/>
  <path id="{kda.foundation.color.icon.brand.logo.default}" d="M102.075 40.7277V15.4674H112.163C115.514 15.4674 118.079 16.3269 119.86 18.0382C121.664 19.7546 122.567 22.3254 122.567 25.7532V30.4753C122.567 33.9288 121.664 36.4996 119.86 38.1903C118.079 39.881 115.514 40.7251 112.163 40.7251H102.075V40.7277ZM106.013 37.2047H112.199C114.379 37.2047 115.995 36.654 117.052 35.55C118.108 34.4229 118.632 32.7656 118.632 30.5808V25.6116C118.632 23.4037 118.105 21.7593 117.052 20.6785C115.997 19.6002 114.381 19.0598 112.199 19.0598H106.013V37.2047Z" fill="#F0EAE6"/>
  <path id="{kda.foundation.color.text.brand.wordmark.inverse.default}" d="M126.96 40.7277V15.4674H142.812V19.0264H130.825V26.2473H141.829V29.8063H130.825V37.2047H142.987V40.7277H126.957H126.96Z" fill="#F0EAE6"/>
  <path id="{kda.foundation.color.text.brand.wordmark.inverse.default}" d="M147.068 40.7277V15.4674H154.557C155.681 19.2477 157.954 26.8005 161.376 38.1209H161.973V15.4674H165.805V40.7277H158.317C157.192 36.9474 154.92 29.3842 151.497 18.0382H150.9V40.7277H147.068Z" fill="#F0EAE6"/>
  <path id="{kda.foundation.color.text.brand.wordmark.inverse.default}" d="M169.21 40.7277C170.406 36.5254 172.794 28.1027 176.379 15.4674H183.235C184.429 19.6697 186.819 28.0924 190.404 40.7277H186.397C186.114 39.7421 185.566 37.758 184.745 34.7729H174.869C174.611 35.7585 174.058 37.7426 173.216 40.7277H169.21ZM175.852 31.1804H183.76C183.15 28.9493 181.933 24.5205 180.105 17.8992H179.508C178.899 20.1072 177.679 24.536 175.854 31.1804H175.852Z" fill="#F0EAE6"/>
  <path id="{kda.foundation.color.text.brand.wordmark.inverse.default}" d="M50.5382 49.3176H35.17L35.1597 49.3099L35.0387 49.2173L15.9931 34.3509L23.7879 28.1001L50.4095 49.2173L50.5382 49.3176Z" fill="#4A9079"/>
  <path id="{kda.foundation.color.text.brand.wordmark.inverse.default}" d="M50.5382 6.88H35.17L35.1597 6.88772L35.0387 6.98036L15.9931 21.8468L23.7879 28.1001L50.4095 6.98036L50.5382 6.88Z" fill="#4A9079"/>
  <path id="{kda.foundation.color.text.brand.wordmark.inverse.default}" d="M15.9957 29.042V49.2173V49.3176L15.9854 49.3099L15.8671 49.2173L6.60288 41.8909L6.57972 41.8728L6.44591 41.7699V14.4277L6.57972 14.3248L6.60288 14.3068L15.8696 6.98036L15.988 6.88772L15.9983 6.88V21.8442V21.8622V29.042H15.9957Z" fill="#4A9079"/>
  <path id="{kda.foundation.color.text.brand.wordmark.inverse.default}" d="M64.612 57.9102V49.261H65.6491V53.0362H65.819C66.4289 52.4005 67.6486 51.1422 69.4732 49.261H70.8602C70.1603 49.9764 68.7578 51.4047 66.6502 53.5431C67.3733 54.2663 68.8247 55.7228 71.0043 57.9102H69.5941C68.9662 57.2668 67.7078 55.9878 65.819 54.0732H65.6491V57.9102H64.612Z" fill="#F0EAE6"/>
  <path id="{kda.foundation.color.text.brand.wordmark.inverse.default}" d="M75.2864 58.08C74.2571 58.08 73.4362 57.7815 72.8263 57.187C72.2061 56.5926 71.8973 55.7228 71.8973 54.5828V52.6038C71.8973 51.4535 72.2061 50.5812 72.8263 49.9867C73.4362 49.3923 74.2571 49.0938 75.2864 49.0938C76.3158 49.0938 77.147 49.3923 77.7595 49.9867C78.3796 50.5812 78.6884 51.4535 78.6884 52.6038V54.5828C78.6884 55.7254 78.3796 56.5926 77.7595 57.187C77.147 57.7815 76.3235 58.08 75.2864 58.08ZM75.2864 57.1639C76.0353 57.1639 76.6143 56.9374 77.0235 56.4897C77.4404 56.0393 77.6514 55.4166 77.6514 54.6188V52.5678C77.6514 51.7649 77.4429 51.137 77.0235 50.6867C76.6143 50.2441 76.0353 50.0227 75.2864 50.0227C74.5376 50.0227 73.9714 50.2441 73.5623 50.6867C73.1454 51.137 72.9344 51.7649 72.9344 52.5678V54.6188C72.9344 55.414 73.1428 56.0393 73.5623 56.4897C73.9714 56.94 74.5479 57.1639 75.2864 57.1639Z" fill="#F0EAE6"/>
  <path id="{kda.foundation.color.text.brand.wordmark.inverse.default}" d="M80.0034 57.9102V49.261H83.3797C84.5146 49.261 85.3895 49.5492 86.0097 50.1308C86.6376 50.7098 86.9516 51.5951 86.9516 52.784V54.3872C86.9516 55.5941 86.6376 56.4819 86.0097 57.0532C85.3895 57.6245 84.5146 57.9102 83.3797 57.9102H80.0034ZM81.0405 56.9709H83.3797C84.2161 56.9709 84.8465 56.765 85.2737 56.3558C85.7086 55.9467 85.9248 55.3059 85.9248 54.4387V52.7505C85.9248 51.8653 85.7086 51.2219 85.2737 50.8205C84.8465 50.419 84.2161 50.2183 83.3797 50.2183H81.0405V56.9734V56.9709Z" fill="#F0EAE6"/>
  <path id="{kda.foundation.color.text.brand.wordmark.inverse.default}" d="M88.6037 57.9102V49.261H93.9229V50.2029H89.6408V53.0979H93.5857V54.0269H89.6408V56.9709H93.9846V57.9127H88.6037V57.9102Z" fill="#F0EAE6"/>
  <path id="{kda.foundation.color.text.brand.wordmark.inverse.default}" d="M98.3259 57.9102V49.261H101.702C102.837 49.261 103.712 49.5492 104.332 50.1308C104.96 50.7098 105.274 51.5951 105.274 52.784V54.3872C105.274 55.5941 104.96 56.4819 104.332 57.0532C103.712 57.6245 102.837 57.9102 101.702 57.9102H98.3259ZM99.363 56.9709H101.702C102.539 56.9709 103.169 56.765 103.596 56.3558C104.031 55.9467 104.247 55.3059 104.247 54.4387V52.7505C104.247 51.8653 104.031 51.2219 103.596 50.8205C103.169 50.419 102.539 50.2183 101.702 50.2183H99.363V56.9734V56.9709Z" fill="#F0EAE6"/>
  <path id="{kda.foundation.color.text.brand.wordmark.inverse.default}" d="M106.926 57.9102V49.261H112.245V50.2029H107.963V53.0979H111.908V54.0269H107.963V56.9709H112.307V57.9127H106.926V57.9102Z" fill="#F0EAE6"/>
  <path id="{kda.foundation.color.text.brand.wordmark.inverse.default}" d="M116.769 58.08C116.141 58.08 115.58 57.9719 115.081 57.7532C114.59 57.5267 114.201 57.1948 113.91 56.7521C113.63 56.2941 113.488 55.7279 113.488 55.0511V54.7989H114.512V55.0511C114.512 55.7743 114.721 56.3095 115.14 56.6543C115.568 57.0095 116.111 57.1845 116.769 57.1845C117.428 57.1845 117.951 57.0326 118.313 56.7264C118.668 56.4202 118.843 56.0342 118.843 55.5684C118.843 55.2544 118.764 55.0022 118.602 54.8092C118.439 54.6162 118.216 54.4644 117.927 54.3512C117.639 54.2302 117.299 54.1221 116.913 54.0244C116.769 53.9935 116.556 53.9394 116.275 53.8674C115.768 53.7387 115.323 53.5792 114.937 53.3836C114.551 53.1983 114.245 52.9538 114.021 52.6476C113.813 52.3336 113.707 51.9322 113.707 51.4407C113.707 50.9492 113.828 50.54 114.07 50.1849C114.312 49.8297 114.649 49.557 115.084 49.364C115.534 49.1787 116.044 49.086 116.615 49.086C117.186 49.086 117.729 49.1864 118.195 49.3871C118.661 49.5878 119.024 49.8864 119.281 50.2801C119.554 50.6661 119.69 51.1576 119.69 51.7521V52.2719H118.666V51.7521C118.666 51.3352 118.578 50.9955 118.401 50.7381C118.223 50.4808 117.979 50.2929 117.665 50.172C117.359 50.0511 117.009 49.9919 116.615 49.9919C116.051 49.9919 115.598 50.1154 115.251 50.365C114.904 50.6146 114.731 50.9672 114.731 51.4252C114.731 51.7315 114.803 51.9811 114.947 52.1741C115.091 52.3594 115.303 52.5164 115.575 52.645C115.848 52.7582 116.175 52.8586 116.553 52.9461C116.697 52.9873 116.911 53.0439 117.191 53.1159C117.698 53.2215 118.149 53.3656 118.542 53.5509C118.944 53.7361 119.266 53.9883 119.507 54.31C119.749 54.624 119.87 55.0331 119.87 55.5401C119.87 56.047 119.742 56.4999 119.484 56.8782C119.227 57.2565 118.864 57.5525 118.398 57.7712C117.933 57.9719 117.39 58.0723 116.769 58.0723V58.08Z" fill="#F0EAE6"/>
  <path id="{kda.foundation.color.text.brand.wordmark.inverse.default}" d="M121.463 57.9102V49.261H122.5V57.9102H121.463Z" fill="#F0EAE6"/>
  <path id="{kda.foundation.color.text.brand.wordmark.inverse.default}" d="M127.495 58.08C126.852 58.08 126.286 57.9462 125.794 57.6811C125.303 57.4161 124.917 57.0223 124.636 56.4999C124.363 55.9853 124.227 55.3471 124.227 54.5828V52.6038C124.227 51.4535 124.533 50.5812 125.143 49.9867C125.753 49.3923 126.574 49.0938 127.603 49.0938C128.633 49.0938 129.405 49.3717 129.942 49.925C130.473 50.4885 130.738 51.24 130.738 52.1818V52.241H129.713V52.1561C129.713 51.7469 129.641 51.3789 129.497 51.0572C129.345 50.7356 129.111 50.4834 128.797 50.2981C128.483 50.1128 128.084 50.0202 127.603 50.0202C126.872 50.0202 126.301 50.2415 125.889 50.6841C125.473 51.1344 125.261 51.7649 125.261 52.5781V54.6059C125.261 55.4088 125.47 56.0367 125.889 56.4871C126.299 56.9374 126.875 57.1613 127.614 57.1613C128.352 57.1613 128.872 56.9529 129.217 56.5334C129.554 56.1242 129.724 55.5761 129.724 54.8916V54.6857H127.107V53.7927H130.738V57.905H129.796V56.9632H129.626C129.538 57.1484 129.41 57.326 129.24 57.4933C129.08 57.6708 128.859 57.8098 128.576 57.9153C128.293 58.0208 127.933 58.0723 127.49 58.0723L127.495 58.08Z" fill="#F0EAE6"/>
  <path id="{kda.foundation.color.text.brand.wordmark.inverse.default}" d="M132.632 57.9102V49.261H134.647C135.146 50.5966 136.149 53.2626 137.663 57.2591H137.82V49.261H138.844V57.9102H136.829C136.33 56.5746 135.329 53.906 133.826 49.9018H133.656V57.9102H132.632Z" fill="#F0EAE6"/>
  <path id="{kda.foundation.color.text.brand.wordmark.inverse.default}" d="M146.891 58.08C146.263 58.08 145.702 57.9719 145.203 57.7532C144.711 57.5267 144.323 57.1948 144.032 56.7521C143.751 56.2941 143.61 55.7279 143.61 55.0511V54.7989H144.634V55.0511C144.634 55.7743 144.842 56.3095 145.262 56.6543C145.689 57.0095 146.232 57.1845 146.891 57.1845C147.55 57.1845 148.072 57.0326 148.435 56.7264C148.79 56.4202 148.965 56.0342 148.965 55.5684C148.965 55.2544 148.885 55.0022 148.723 54.8092C148.561 54.6162 148.337 54.4644 148.049 54.3512C147.761 54.2302 147.421 54.1221 147.035 54.0244C146.891 53.9935 146.677 53.9394 146.397 53.8674C145.89 53.7387 145.445 53.5792 145.059 53.3836C144.673 53.1983 144.366 52.9538 144.142 52.6476C143.934 52.3336 143.828 51.9322 143.828 51.4407C143.828 50.9492 143.949 50.54 144.191 50.1849C144.433 49.8297 144.77 49.557 145.205 49.364C145.656 49.1787 146.165 49.086 146.736 49.086C147.308 49.086 147.851 49.1864 148.316 49.3871C148.782 49.5878 149.145 49.8864 149.402 50.2801C149.675 50.6661 149.812 51.1576 149.812 51.7521V52.2719H148.787V51.7521C148.787 51.3352 148.7 50.9955 148.522 50.7381C148.345 50.4808 148.1 50.2929 147.786 50.172C147.48 50.0511 147.13 49.9919 146.736 49.9919C146.173 49.9919 145.72 50.1154 145.372 50.365C145.025 50.6146 144.853 50.9672 144.853 51.4252C144.853 51.7315 144.925 51.9811 145.069 52.1741C145.213 52.3594 145.424 52.5164 145.697 52.645C145.969 52.7582 146.296 52.8586 146.675 52.9461C146.819 52.9873 147.032 53.0439 147.313 53.1159C147.82 53.2215 148.27 53.3656 148.664 53.5509C149.065 53.7361 149.387 53.9883 149.629 54.31C149.871 54.624 149.992 55.0331 149.992 55.5401C149.992 56.047 149.863 56.4999 149.606 56.8782C149.348 57.2565 148.986 57.5525 148.52 57.7712C148.054 57.9719 147.511 58.0723 146.891 58.0723V58.08Z" fill="#F0EAE6"/>
  <path id="{kda.foundation.color.text.brand.wordmark.inverse.default}" d="M153.839 57.9102V54.6162C153.332 53.7233 152.308 51.9373 150.764 49.261H151.958L154.274 53.4093H154.444C154.837 52.7171 155.615 51.3352 156.773 49.261H157.954C157.447 50.154 156.423 51.9399 154.879 54.6162V57.9102H153.841H153.839Z" fill="#F0EAE6"/>
  <path id="{kda.foundation.color.text.brand.wordmark.inverse.default}" d="M162.007 58.08C161.379 58.08 160.818 57.9719 160.319 57.7532C159.827 57.5267 159.439 57.1948 159.148 56.7521C158.867 56.2941 158.726 55.7279 158.726 55.0511V54.7989H159.75V55.0511C159.75 55.7743 159.958 56.3095 160.378 56.6543C160.805 57.0095 161.348 57.1845 162.007 57.1845C162.666 57.1845 163.188 57.0326 163.551 56.7264C163.906 56.4202 164.081 56.0342 164.081 55.5684C164.081 55.2544 164.001 55.0022 163.839 54.8092C163.677 54.6162 163.453 54.4644 163.165 54.3512C162.877 54.2302 162.537 54.1221 162.151 54.0244C162.007 53.9935 161.793 53.9394 161.513 53.8674C161.006 53.7387 160.561 53.5792 160.175 53.3836C159.789 53.1983 159.482 52.9538 159.258 52.6476C159.05 52.3336 158.944 51.9322 158.944 51.4407C158.944 50.9492 159.065 50.54 159.307 50.1849C159.549 49.8297 159.886 49.557 160.321 49.364C160.772 49.1787 161.281 49.086 161.852 49.086C162.424 49.086 162.967 49.1864 163.432 49.3871C163.898 49.5878 164.261 49.8864 164.518 50.2801C164.791 50.6661 164.928 51.1576 164.928 51.7521V52.2719H163.903V51.7521C163.903 51.3352 163.816 50.9955 163.638 50.7381C163.461 50.4808 163.216 50.2929 162.902 50.172C162.596 50.0511 162.246 49.9919 161.852 49.9919C161.289 49.9919 160.836 50.1154 160.489 50.365C160.141 50.6146 159.969 50.9672 159.969 51.4252C159.969 51.7315 160.041 51.9811 160.185 52.1741C160.329 52.3594 160.54 52.5164 160.813 52.645C161.086 52.7582 161.412 52.8586 161.791 52.9461C161.935 52.9873 162.148 53.0439 162.429 53.1159C162.936 53.2215 163.386 53.3656 163.78 53.5509C164.181 53.7361 164.503 53.9883 164.745 54.31C164.987 54.624 165.108 55.0331 165.108 55.5401C165.108 56.047 164.979 56.4999 164.722 56.8782C164.464 57.2565 164.102 57.5525 163.636 57.7712C163.17 57.9719 162.627 58.0723 162.007 58.0723V58.08Z" fill="#F0EAE6"/>
  <path id="{kda.foundation.color.text.brand.wordmark.inverse.default}" d="M168.821 57.9102V50.2029H166.047V49.261H172.632V50.2029H169.858V57.9102H168.821Z" fill="#F0EAE6"/>
  <path id="{kda.foundation.color.text.brand.wordmark.inverse.default}" d="M173.96 57.9102V49.261H179.279V50.2029H174.997V53.0979H178.942V54.0269H174.997V56.9709H179.341V57.9127H173.96V57.9102Z" fill="#F0EAE6"/>
  <path id="{kda.foundation.color.text.brand.wordmark.inverse.default}" d="M180.921 57.9102V49.261H182.9C183.278 50.5966 184.043 53.2626 185.193 57.2591H185.363C185.741 55.9235 186.505 53.2575 187.656 49.261H189.635V57.9102H188.634V49.9481H188.464C188.078 51.276 187.313 53.9291 186.171 57.9102H184.385C183.999 56.5823 183.235 53.9291 182.092 49.9481H181.922V57.9102H180.921Z" fill="#F0EAE6"/>
</svg>
