<svg data-style="kdacolor" width="197" height="64" viewBox="0 0 197 64" xmlns="http://www.w3.org/2000/svg">  <path id="{kda.foundation.color.icon.brand.logo.default}" d="M50.54 49.32H35.16L35.04 49.22L15.99 34.35L23.78 28.1L50.4 49.22L50.53 49.32H50.54Z" fill="#4A9079"/>  <path id="{kda.foundation.color.icon.brand.logo.default}" d="M50.54 6.88H35.16L35.04 6.98L15.99 21.85L23.78 28.1L50.41 6.98L50.54 6.88Z" fill="#4A9079"/>  <path id="{kda.foundation.color.icon.brand.logo.default}" d="M16 29.04V49.32H15.99L15.87 49.22L6.60996 41.89L6.58996 41.87L6.45996 41.77V14.43L6.58996 14.33L6.60996 14.31L15.88 6.98L16 6.89H16.01V21.85V29.05L16 29.04Z" fill="#4A9079"/>  <path id="{kda.foundation.color.text.brand.wordmark.inverse.default}" d="M58.03 40.73V15.47H61.9V25.97H62.5C64.07 24.23 67.2 20.73 71.89 15.47H76.95C75.05 17.56 71.27 21.71 65.6 27.91C67.57 30.05 71.49 34.32 77.38 40.74H72.14C70.55 38.95 67.34 35.38 62.51 30.03H61.91V40.74H58.04L58.03 40.73Z" fill="#F0EAE6"/>  <path id="{kda.foundation.color.text.brand.wordmark.inverse.default}" d="M78.4199 40.73C79.6099 36.53 81.9999 28.11 85.5899 15.47H92.4499C93.6399 19.67 96.0399 28.1 99.6199 40.73H95.6099C95.3299 39.74 94.7799 37.76 93.9599 34.78H84.0799C83.8199 35.77 83.2699 37.75 82.4299 40.73H78.4199ZM85.0599 31.18H92.9699C92.3599 28.95 91.1399 24.52 89.3199 17.9H88.7199C88.1099 20.11 86.8899 24.54 85.0699 31.18H85.0599Z" fill="#F0EAE6"/>  <path id="{kda.foundation.color.text.brand.wordmark.inverse.default}" d="M102.07 40.73V15.47H112.16C115.51 15.47 118.08 16.33 119.86 18.04C121.66 19.76 122.57 22.33 122.57 25.76V30.48C122.57 33.93 121.67 36.5 119.86 38.2C118.08 39.89 115.51 40.73 112.16 40.73H102.07ZM106.01 37.2H112.2C114.38 37.2 116 36.65 117.05 35.55C118.11 34.42 118.63 32.77 118.63 30.58V25.61C118.63 23.4 118.1 21.76 117.05 20.68C115.99 19.6 114.38 19.06 112.2 19.06H106.01V37.2Z" fill="#F0EAE6"/>  <path id="{kda.foundation.color.text.brand.wordmark.inverse.default}" d="M126.96 40.73V15.47H142.81V19.03H130.82V26.25H141.82V29.81H130.82V37.21H142.98V40.73H126.95H126.96Z" fill="#F0EAE6"/>  <path id="{kda.foundation.color.text.brand.wordmark.inverse.default}" d="M147.07 40.73V15.47H154.56C155.68 19.25 157.96 26.8 161.38 38.12H161.98V15.47H165.81V40.73H158.32C157.2 36.95 154.92 29.39 151.5 18.04H150.9V40.73H147.07Z" fill="#F0EAE6"/>  <path id="{kda.foundation.color.text.brand.wordmark.inverse.default}" d="M169.21 40.73C170.41 36.53 172.79 28.11 176.38 15.47H183.24C184.43 19.67 186.82 28.1 190.41 40.73H186.4C186.12 39.74 185.57 37.76 184.75 34.78H174.87C174.61 35.77 174.06 37.75 173.22 40.73H169.21ZM175.85 31.18H183.76C183.15 28.95 181.93 24.52 180.11 17.9H179.51C178.9 20.11 177.68 24.54 175.86 31.18H175.85Z" fill="#F0EAE6"/>  <path id="{kda.foundation.color.text.brand.wordmark.inverse.default}" d="M148.72 57.91V50.2H145.94V49.26H152.54V50.2H149.76V57.91H148.72Z" fill="#F0EAE6"/>  <path id="{kda.foundation.color.text.brand.wordmark.inverse.default}" d="M158.48 58.08C157.45 58.08 156.63 57.78 156.02 57.18C155.41 56.58 155.1 55.71 155.1 54.57V52.59C155.1 51.45 155.41 50.58 156.02 49.98C156.63 49.38 157.45 49.08 158.48 49.08C159.51 49.08 160.34 49.38 160.96 49.98C161.57 50.58 161.88 51.45 161.88 52.59V54.57C161.88 55.71 161.57 56.59 160.96 57.18C160.35 57.78 159.52 58.08 158.48 58.08ZM158.48 57.16C159.23 57.16 159.81 56.94 160.22 56.49C160.63 56.04 160.84 55.42 160.84 54.62V52.57C160.84 51.77 160.63 51.15 160.22 50.7C159.81 50.25 159.23 50.03 158.48 50.03C157.73 50.03 157.16 50.25 156.75 50.7C156.34 51.15 156.13 51.77 156.13 52.57V54.62C156.13 55.42 156.34 56.04 156.75 56.49C157.16 56.94 157.74 57.16 158.48 57.16Z" fill="#F0EAE6"/>  <path id="{kda.foundation.color.text.brand.wordmark.inverse.default}" d="M168.22 58.08C167.19 58.08 166.37 57.78 165.76 57.18C165.15 56.58 164.84 55.71 164.84 54.57V52.59C164.84 51.45 165.15 50.58 165.76 49.98C166.37 49.38 167.19 49.08 168.22 49.08C169.25 49.08 170.08 49.38 170.7 49.98C171.31 50.58 171.62 51.45 171.62 52.59V54.57C171.62 55.71 171.31 56.59 170.7 57.18C170.09 57.78 169.26 58.08 168.22 58.08ZM168.22 57.16C168.97 57.16 169.55 56.94 169.96 56.49C170.37 56.04 170.58 55.42 170.58 54.62V52.57C170.58 51.77 170.37 51.15 169.96 50.7C169.55 50.25 168.97 50.03 168.22 50.03C167.47 50.03 166.9 50.25 166.49 50.7C166.08 51.15 165.87 51.77 165.87 52.57V54.62C165.87 55.42 166.08 56.04 166.49 56.49C166.9 56.94 167.48 57.16 168.22 57.16Z" fill="#F0EAE6"/>  <path id="{kda.foundation.color.text.brand.wordmark.inverse.default}" d="M174.83 57.91V49.27H175.87V56.98H180.24V57.92H174.83V57.91Z" fill="#F0EAE6"/>  <path id="{kda.foundation.color.text.brand.wordmark.inverse.default}" d="M185.93 58.08C185.31 58.08 184.74 57.97 184.25 57.75C183.76 57.53 183.37 57.19 183.08 56.74C182.79 56.29 182.65 55.73 182.65 55.05V54.79H183.68V55.05C183.68 55.77 183.89 56.3 184.31 56.65C184.73 57 185.27 57.18 185.93 57.18C186.59 57.18 187.12 57.03 187.47 56.72C187.82 56.42 188 56.03 188 55.57C188 55.25 187.92 54.99 187.76 54.8C187.6 54.61 187.38 54.46 187.09 54.34C186.8 54.22 186.46 54.12 186.08 54.02L185.44 53.86C184.94 53.73 184.49 53.57 184.11 53.38C183.72 53.19 183.42 52.94 183.2 52.63C182.98 52.32 182.87 51.92 182.87 51.44C182.87 50.96 182.99 50.53 183.23 50.18C183.47 49.83 183.81 49.55 184.26 49.36C184.71 49.17 185.21 49.08 185.79 49.08C186.37 49.08 186.9 49.18 187.36 49.38C187.82 49.58 188.19 49.88 188.46 50.27C188.73 50.66 188.86 51.15 188.86 51.75V52.27H187.83V51.75C187.83 51.33 187.74 50.99 187.56 50.74C187.38 50.49 187.14 50.3 186.83 50.17C186.52 50.05 186.17 49.99 185.77 49.99C185.2 49.99 184.74 50.11 184.4 50.37C184.05 50.62 183.88 50.98 183.88 51.44C183.88 51.74 183.95 51.99 184.1 52.18C184.25 52.37 184.46 52.52 184.73 52.64C185 52.76 185.33 52.86 185.71 52.96L186.35 53.12C186.85 53.23 187.3 53.37 187.7 53.56C188.1 53.75 188.42 54 188.66 54.31C188.9 54.63 189.02 55.04 189.02 55.55C189.02 56.06 188.89 56.51 188.64 56.88C188.38 57.26 188.02 57.55 187.56 57.76C187.1 57.97 186.55 58.07 185.92 58.07L185.93 58.08Z" fill="#F0EAE6"/></svg>