<svg data-style="kdacolor" width="197" height="64" viewBox="0 0 197 64"
  xmlns="http://www.w3.org/2000/svg">
  <path id="{kda.foundation.color.icon.brand.logo.default}" d="M50.732 48.84H35.444L35.324 48.736L16.396 33.872L24.148 27.624L50.612 48.744L50.74 48.848L50.732 48.84Z" fill="#4A9079"/>
  <path id="{kda.foundation.color.icon.brand.logo.default}" d="M50.732 6.39999H35.444L35.324 6.50399L16.388 21.368L24.14 27.624L50.604 6.50399L50.732 6.39999Z" fill="#4A9079"/>
  <path id="{kda.foundation.color.icon.brand.logo.default}" d="M16.396 28.56V48.84H16.388L16.268 48.736L7.05999 41.416L7.03599 41.4L6.89999 41.296V13.952L7.03599 13.848L7.05999 13.832L16.268 6.50399L16.388 6.40799H16.396V21.368V28.568V28.56Z" fill="#4A9079"/>
  <path id="{kda.foundation.color.text.brand.wordmark.inverse.default}" d="M58.18 40.248V14.984H62.02V25.48H62.612C64.172 23.744 67.284 20.24 71.94 14.984H76.972C75.084 17.08 71.324 21.224 65.684 27.424C67.636 29.56 71.54 33.832 77.388 40.248H72.18C70.596 38.464 67.404 34.896 62.604 29.536H62.012V40.248H58.164H58.18Z" fill="#F0EAE6"/>
  <path id="{kda.foundation.color.text.brand.wordmark.inverse.default}" d="M78.436 40.248C79.62 36.048 81.996 27.624 85.564 14.984H92.38C93.564 19.184 95.948 27.608 99.508 40.248H95.524C95.244 39.264 94.7 37.28 93.884 34.296H84.068C83.812 35.28 83.26 37.264 82.428 40.248H78.444H78.436ZM85.044 30.704H92.908C92.3 28.472 91.092 24.04 89.276 17.424H88.684C88.076 19.632 86.868 24.064 85.052 30.704H85.044Z" fill="#F0EAE6"/>
  <path id="{kda.foundation.color.text.brand.wordmark.inverse.default}" d="M101.956 40.248V14.984H111.98C115.308 14.984 117.86 15.84 119.628 17.552C121.42 19.272 122.316 21.84 122.316 25.264V29.984C122.316 33.44 121.42 36.008 119.628 37.696C117.86 39.384 115.308 40.232 111.98 40.232H101.956V40.248ZM105.868 36.728H112.02C114.188 36.728 115.796 36.176 116.844 35.072C117.892 33.944 118.412 32.288 118.412 30.104V25.136C118.412 22.928 117.884 21.28 116.844 20.2C115.796 19.12 114.188 18.584 112.02 18.584H105.868V36.728Z" fill="#F0EAE6"/>
  <path id="{kda.foundation.color.text.brand.wordmark.inverse.default}" d="M126.692 40.248V14.984H142.452V18.544H130.54V25.768H141.476V29.328H130.54V36.728H142.628V40.248H126.692Z" fill="#F0EAE6"/>
  <path id="{kda.foundation.color.text.brand.wordmark.inverse.default}" d="M146.684 40.248V14.984H154.124C155.244 18.768 157.5 26.32 160.9 37.64H161.492V14.984H165.3V40.248H157.86C156.74 36.464 154.484 28.904 151.084 17.56H150.492V40.248H146.684Z" fill="#F0EAE6"/>
  <path id="{kda.foundation.color.text.brand.wordmark.inverse.default}" d="M168.692 40.248C169.884 36.048 172.252 27.624 175.82 14.984H182.636C183.82 19.184 186.196 27.608 189.764 40.248H185.78C185.5 39.264 184.956 37.28 184.14 34.296H174.324C174.068 35.28 173.516 37.264 172.684 40.248H168.7H168.692ZM175.292 30.704H183.156C182.548 28.472 181.34 24.04 179.524 17.424H178.932C178.324 19.632 177.116 24.064 175.3 30.704H175.292Z" fill="#F0EAE6"/>
  <path id="{kda.foundation.color.text.brand.wordmark.inverse.default}" d="M115.916 57.432V48.784H119.204C119.724 48.784 120.188 48.888 120.596 49.088C120.996 49.288 121.316 49.576 121.556 49.944C121.796 50.32 121.916 50.776 121.916 51.296V51.456C121.916 51.976 121.796 52.424 121.548 52.792C121.308 53.168 120.988 53.456 120.58 53.664C120.172 53.856 119.716 53.952 119.212 53.952H116.956V57.44H115.924L115.916 57.432ZM116.948 53H119.092C119.644 53 120.076 52.864 120.396 52.592C120.716 52.32 120.876 51.928 120.876 51.424V51.304C120.876 50.808 120.716 50.416 120.396 50.136C120.084 49.864 119.652 49.728 119.092 49.728H116.948V53.008V53Z" fill="#F0EAE6"/>
  <path id="{kda.foundation.color.text.brand.wordmark.inverse.default}" d="M123.292 57.432V48.784H126.772C127.3 48.784 127.764 48.88 128.172 49.064C128.58 49.248 128.892 49.512 129.116 49.856C129.348 50.192 129.468 50.608 129.468 51.088V51.224C129.468 51.792 129.332 52.248 129.06 52.576C128.788 52.904 128.468 53.128 128.1 53.24V53.408C128.396 53.408 128.644 53.512 128.828 53.696C129.02 53.88 129.116 54.16 129.116 54.528V57.44H128.1V54.664C128.1 54.416 128.028 54.224 127.892 54.088C127.764 53.96 127.564 53.896 127.292 53.896H124.316V57.44H123.284L123.292 57.432ZM124.324 52.944H126.676C127.236 52.944 127.668 52.808 127.98 52.536C128.284 52.264 128.436 51.88 128.436 51.376V51.288C128.436 50.8 128.284 50.408 127.98 50.128C127.676 49.856 127.244 49.72 126.676 49.72H124.324V52.944Z" fill="#F0EAE6"/>
  <path id="{kda.foundation.color.text.brand.wordmark.inverse.default}" d="M134.156 57.6C133.132 57.6 132.316 57.304 131.708 56.704C131.092 56.112 130.788 55.24 130.788 54.096V52.12C130.788 50.968 131.092 50.096 131.708 49.504C132.316 48.912 133.132 48.608 134.156 48.608C135.18 48.608 136.004 48.904 136.612 49.504C137.228 50.096 137.532 50.968 137.532 52.12V54.096C137.532 55.24 137.228 56.104 136.612 56.704C136.004 57.296 135.188 57.6 134.156 57.6ZM134.156 56.68C134.9 56.68 135.476 56.456 135.884 56.008C136.3 55.56 136.508 54.936 136.508 54.136V52.088C136.508 51.288 136.3 50.656 135.884 50.208C135.476 49.768 134.9 49.544 134.156 49.544C133.412 49.544 132.852 49.768 132.444 50.208C132.028 50.656 131.82 51.288 131.82 52.088V54.136C131.82 54.928 132.028 55.56 132.444 56.008C132.852 56.456 133.42 56.68 134.156 56.68Z" fill="#F0EAE6"/>
  <path id="{kda.foundation.color.text.brand.wordmark.inverse.default}" d="M142.364 57.6C141.34 57.6 140.524 57.304 139.916 56.704C139.3 56.112 138.996 55.24 138.996 54.096V52.12C138.996 50.968 139.3 50.096 139.916 49.504C140.524 48.912 141.34 48.608 142.364 48.608C143.388 48.608 144.212 48.904 144.82 49.504C145.436 50.096 145.74 50.968 145.74 52.12V54.096C145.74 55.24 145.436 56.104 144.82 56.704C144.212 57.296 143.396 57.6 142.364 57.6ZM142.364 56.68C143.108 56.68 143.684 56.456 144.092 56.008C144.508 55.56 144.716 54.936 144.716 54.136V52.088C144.716 51.288 144.508 50.656 144.092 50.208C143.684 49.768 143.108 49.544 142.364 49.544C141.62 49.544 141.06 49.768 140.652 50.208C140.236 50.656 140.028 51.288 140.028 52.088V54.136C140.028 54.928 140.236 55.56 140.652 56.008C141.06 56.456 141.628 56.68 142.364 56.68Z" fill="#F0EAE6"/>
  <path id="{kda.foundation.color.text.brand.wordmark.inverse.default}" d="M147.468 57.432V48.784H152.66V49.728H148.5V52.64H152.324V53.568H148.5V57.44H147.468V57.432Z" fill="#F0EAE6"/>
  <path id="{kda.foundation.color.text.brand.wordmark.inverse.default}" d="M160.364 57.6C159.34 57.6 158.524 57.304 157.916 56.704C157.3 56.112 156.996 55.24 156.996 54.096V52.12C156.996 50.968 157.3 50.096 157.916 49.504C158.524 48.912 159.34 48.608 160.364 48.608C161.388 48.608 162.212 48.904 162.82 49.504C163.436 50.096 163.74 50.968 163.74 52.12V54.096C163.74 55.24 163.436 56.104 162.82 56.704C162.212 57.296 161.396 57.6 160.364 57.6ZM160.364 56.68C161.108 56.68 161.684 56.456 162.092 56.008C162.508 55.56 162.716 54.936 162.716 54.136V52.088C162.716 51.288 162.508 50.656 162.092 50.208C161.684 49.768 161.108 49.544 160.364 49.544C159.62 49.544 159.06 49.768 158.652 50.208C158.236 50.656 158.028 51.288 158.028 52.088V54.136C158.028 54.928 158.236 55.56 158.652 56.008C159.06 56.456 159.628 56.68 160.364 56.68Z" fill="#F0EAE6"/>
  <path id="{kda.foundation.color.text.brand.wordmark.inverse.default}" d="M165.46 57.432V48.784H170.652V49.728H166.492V52.64H170.316V53.568H166.492V57.44H165.46V57.432Z" fill="#F0EAE6"/>
  <path id="{kda.foundation.color.text.brand.wordmark.inverse.default}" d="M178.348 57.6C177.708 57.6 177.156 57.488 176.684 57.264C176.204 57.032 175.836 56.688 175.58 56.24C175.316 55.776 175.188 55.208 175.188 54.536V48.784H176.204V54.552C176.204 55.256 176.388 55.792 176.764 56.152C177.14 56.504 177.668 56.68 178.348 56.68C179.028 56.68 179.556 56.504 179.932 56.152C180.308 55.792 180.492 55.256 180.492 54.552V48.784H181.524V54.536C181.524 55.2 181.388 55.768 181.124 56.224C180.868 56.68 180.5 57.024 180.012 57.264C179.54 57.488 178.98 57.6 178.348 57.6Z" fill="#F0EAE6"/>
  <path id="{kda.foundation.color.text.brand.wordmark.inverse.default}" d="M186.292 57.6C185.668 57.6 185.108 57.488 184.612 57.272C184.124 57.048 183.74 56.712 183.452 56.272C183.172 55.816 183.036 55.248 183.036 54.568V54.312H184.052V54.568C184.052 55.288 184.26 55.824 184.676 56.168C185.1 56.52 185.644 56.696 186.292 56.696C186.94 56.696 187.468 56.544 187.828 56.24C188.18 55.936 188.356 55.544 188.356 55.08C188.356 54.768 188.276 54.512 188.116 54.32C187.956 54.128 187.732 53.976 187.444 53.864C187.156 53.744 186.82 53.632 186.436 53.536C186.292 53.504 186.084 53.448 185.804 53.376C185.3 53.248 184.86 53.088 184.476 52.896C184.092 52.712 183.788 52.464 183.564 52.16C183.356 51.848 183.252 51.448 183.252 50.952C183.252 50.456 183.372 50.048 183.612 49.696C183.852 49.344 184.188 49.072 184.62 48.872C185.068 48.688 185.572 48.592 186.14 48.592C186.708 48.592 187.244 48.696 187.708 48.896C188.172 49.096 188.532 49.392 188.788 49.792C189.06 50.176 189.196 50.672 189.196 51.264V51.784H188.18V51.264C188.18 50.848 188.092 50.504 187.916 50.248C187.74 49.992 187.492 49.8 187.188 49.68C186.884 49.56 186.532 49.496 186.14 49.496C185.58 49.496 185.132 49.616 184.788 49.872C184.444 50.12 184.268 50.472 184.268 50.936C184.268 51.24 184.34 51.488 184.484 51.688C184.628 51.872 184.836 52.032 185.108 52.16C185.38 52.272 185.7 52.376 186.076 52.464C186.22 52.504 186.428 52.56 186.708 52.632C187.212 52.736 187.66 52.88 188.052 53.064C188.452 53.248 188.772 53.504 189.012 53.824C189.252 54.136 189.372 54.544 189.372 55.056C189.372 55.568 189.244 56.016 188.988 56.392C188.732 56.768 188.372 57.064 187.908 57.288C187.444 57.488 186.908 57.592 186.292 57.592V57.6Z" fill="#F0EAE6"/>
</svg>
