<svg data-style="kdacolor" width="229" height="64" viewBox="0 0 229 64"
  xmlns="http://www.w3.org/2000/svg">
  <path id="{kda.foundation.color.icon.brand.logo.default}" d="M54.79 53.05H35.68L35.53 52.92L11.87 34.34L21.56 26.53L54.64 52.93L54.8 53.06L54.79 53.05Z" fill="#4A9079"/>
  <path id="{kda.foundation.color.icon.brand.logo.default}" d="M54.79 0H35.68L35.53 0.13L11.86 18.71L21.55 26.53L54.63 0.13L54.79 0Z" fill="#4A9079"/>
  <path id="{kda.foundation.color.icon.brand.logo.default}" d="M11.87 27.7V53.05H11.86L11.71 52.92L0.2 43.77L0.17 43.75L0 43.62V9.44001L0.17 9.31001L0.2 9.29001L11.71 0.13001L11.86 0.0100098H11.87V18.71V27.71V27.7Z" fill="#4A9079"/>
  <path id="{kda.foundation.color.text.brand.wordmark.inverse.default}" d="M64.1 42.31V10.73H68.9V23.85H69.64C71.59 21.68 75.48 17.3 81.3 10.73H87.59C85.23 13.35 80.53 18.53 73.48 26.28C75.92 28.95 80.8 34.29 88.11 42.31H81.6C79.62 40.08 75.63 35.62 69.63 28.92H68.89V42.31H64.08H64.1Z" fill="#F0EAE6"/>
  <path id="{kda.foundation.color.text.brand.wordmark.inverse.default}" d="M89.42 42.31C90.9 37.06 93.87 26.53 98.33 10.73H106.85C108.33 15.98 111.31 26.51 115.76 42.31H110.78C110.43 41.08 109.75 38.6 108.73 34.87H96.46C96.14 36.1 95.45 38.58 94.41 42.31H89.43H89.42ZM97.68 30.38H107.51C106.75 27.59 105.24 22.05 102.97 13.78H102.23C101.47 16.54 99.96 22.08 97.69 30.38H97.68Z" fill="#F0EAE6"/>
  <path id="{kda.foundation.color.text.brand.wordmark.inverse.default}" d="M118.82 42.31V10.73H131.35C135.51 10.73 138.7 11.8 140.91 13.94C143.15 16.09 144.27 19.3 144.27 23.58V29.48C144.27 33.8 143.15 37.01 140.91 39.12C138.7 41.23 135.51 42.29 131.35 42.29H118.82V42.31ZM123.71 37.91H131.4C134.11 37.91 136.12 37.22 137.43 35.84C138.74 34.43 139.39 32.36 139.39 29.63V23.42C139.39 20.66 138.73 18.6 137.43 17.25C136.12 15.9 134.11 15.23 131.4 15.23H123.71V37.91Z" fill="#F0EAE6"/>
  <path id="{kda.foundation.color.text.brand.wordmark.inverse.default}" d="M149.74 42.31V10.73H169.44V15.18H154.55V24.21H168.22V28.66H154.55V37.91H169.66V42.31H149.74Z" fill="#F0EAE6"/>
  <path id="{kda.foundation.color.text.brand.wordmark.inverse.default}" d="M174.73 42.31V10.73H184.03C185.43 15.46 188.25 24.9 192.5 39.05H193.24V10.73H198V42.31H188.7C187.3 37.58 184.48 28.13 180.23 13.95H179.49V42.31H174.73Z" fill="#F0EAE6"/>
  <path id="{kda.foundation.color.text.brand.wordmark.inverse.default}" d="M202.24 42.31C203.73 37.06 206.69 26.53 211.15 10.73H219.67C221.15 15.98 224.12 26.51 228.58 42.31H223.6C223.25 41.08 222.57 38.6 221.55 34.87H209.28C208.96 36.1 208.27 38.58 207.23 42.31H202.25H202.24ZM210.49 30.38H220.32C219.56 27.59 218.05 22.05 215.78 13.78H215.04C214.28 16.54 212.77 22.08 210.5 30.38H210.49Z" fill="#F0EAE6"/>
  <path id="{kda.foundation.color.text.brand.wordmark.inverse.default}" d="M136.27 63.79V52.98H140.38C141.03 52.98 141.61 53.11 142.12 53.36C142.62 53.61 143.02 53.97 143.32 54.43C143.62 54.9 143.77 55.47 143.77 56.12V56.32C143.77 56.97 143.62 57.53 143.31 57.99C143.01 58.46 142.61 58.82 142.1 59.08C141.59 59.32 141.02 59.44 140.39 59.44H137.57V63.8H136.28L136.27 63.79ZM137.56 58.25H140.24C140.93 58.25 141.47 58.08 141.87 57.74C142.27 57.4 142.47 56.91 142.47 56.28V56.13C142.47 55.51 142.27 55.02 141.87 54.67C141.48 54.33 140.94 54.16 140.24 54.16H137.56V58.26V58.25Z" fill="#F0EAE6"/>
  <path id="{kda.foundation.color.text.brand.wordmark.inverse.default}" d="M145.49 63.79V52.98H149.84C150.5 52.98 151.08 53.1 151.59 53.33C152.1 53.56 152.49 53.89 152.77 54.32C153.06 54.74 153.21 55.26 153.21 55.86V56.03C153.21 56.74 153.04 57.31 152.7 57.72C152.36 58.13 151.96 58.41 151.5 58.55V58.76C151.87 58.76 152.18 58.89 152.41 59.12C152.65 59.35 152.77 59.7 152.77 60.16V63.8H151.5V60.33C151.5 60.02 151.41 59.78 151.24 59.61C151.08 59.45 150.83 59.37 150.49 59.37H146.77V63.8H145.48L145.49 63.79ZM146.78 58.18H149.72C150.42 58.18 150.96 58.01 151.35 57.67C151.73 57.33 151.92 56.85 151.92 56.22V56.11C151.92 55.5 151.73 55.01 151.35 54.66C150.97 54.32 150.43 54.15 149.72 54.15H146.78V58.18Z" fill="#F0EAE6"/>
  <path id="{kda.foundation.color.text.brand.wordmark.inverse.default}" d="M159.07 64C157.79 64 156.77 63.63 156.01 62.88C155.24 62.14 154.86 61.05 154.86 59.62V57.15C154.86 55.71 155.24 54.62 156.01 53.88C156.77 53.14 157.79 52.76 159.07 52.76C160.35 52.76 161.38 53.13 162.14 53.88C162.91 54.62 163.29 55.71 163.29 57.15V59.62C163.29 61.05 162.91 62.13 162.14 62.88C161.38 63.62 160.36 64 159.07 64ZM159.07 62.85C160 62.85 160.72 62.57 161.23 62.01C161.75 61.45 162.01 60.67 162.01 59.67V57.11C162.01 56.11 161.75 55.32 161.23 54.76C160.72 54.21 160 53.93 159.07 53.93C158.14 53.93 157.44 54.21 156.93 54.76C156.41 55.32 156.15 56.11 156.15 57.11V59.67C156.15 60.66 156.41 61.45 156.93 62.01C157.44 62.57 158.15 62.85 159.07 62.85Z" fill="#F0EAE6"/>
  <path id="{kda.foundation.color.text.brand.wordmark.inverse.default}" d="M169.33 64C168.05 64 167.03 63.63 166.27 62.88C165.5 62.14 165.12 61.05 165.12 59.62V57.15C165.12 55.71 165.5 54.62 166.27 53.88C167.03 53.14 168.05 52.76 169.33 52.76C170.61 52.76 171.64 53.13 172.4 53.88C173.17 54.62 173.55 55.71 173.55 57.15V59.62C173.55 61.05 173.17 62.13 172.4 62.88C171.64 63.62 170.62 64 169.33 64ZM169.33 62.85C170.26 62.85 170.98 62.57 171.49 62.01C172.01 61.45 172.27 60.67 172.27 59.67V57.11C172.27 56.11 172.01 55.32 171.49 54.76C170.98 54.21 170.26 53.93 169.33 53.93C168.4 53.93 167.7 54.21 167.19 54.76C166.67 55.32 166.41 56.11 166.41 57.11V59.67C166.41 60.66 166.67 61.45 167.19 62.01C167.7 62.57 168.41 62.85 169.33 62.85Z" fill="#F0EAE6"/>
  <path id="{kda.foundation.color.text.brand.wordmark.inverse.default}" d="M175.71 63.79V52.98H182.2V54.16H177V57.8H181.78V58.96H177V63.8H175.71V63.79Z" fill="#F0EAE6"/>
  <path id="{kda.foundation.color.text.brand.wordmark.inverse.default}" d="M191.83 64C190.55 64 189.53 63.63 188.77 62.88C188 62.14 187.62 61.05 187.62 59.62V57.15C187.62 55.71 188 54.62 188.77 53.88C189.53 53.14 190.55 52.76 191.83 52.76C193.11 52.76 194.14 53.13 194.9 53.88C195.67 54.62 196.05 55.71 196.05 57.15V59.62C196.05 61.05 195.67 62.13 194.9 62.88C194.14 63.62 193.12 64 191.83 64ZM191.83 62.85C192.76 62.85 193.48 62.57 193.99 62.01C194.51 61.45 194.77 60.67 194.77 59.67V57.11C194.77 56.11 194.51 55.32 193.99 54.76C193.48 54.21 192.76 53.93 191.83 53.93C190.9 53.93 190.2 54.21 189.69 54.76C189.17 55.32 188.91 56.11 188.91 57.11V59.67C188.91 60.66 189.17 61.45 189.69 62.01C190.2 62.57 190.91 62.85 191.83 62.85Z" fill="#F0EAE6"/>
  <path id="{kda.foundation.color.text.brand.wordmark.inverse.default}" d="M198.2 63.79V52.98H204.69V54.16H199.49V57.8H204.27V58.96H199.49V63.8H198.2V63.79Z" fill="#F0EAE6"/>
  <path id="{kda.foundation.color.text.brand.wordmark.inverse.default}" d="M214.31 64C213.51 64 212.82 63.86 212.23 63.58C211.63 63.29 211.17 62.86 210.85 62.3C210.52 61.72 210.36 61.01 210.36 60.17V52.98H211.63V60.19C211.63 61.07 211.86 61.74 212.33 62.19C212.8 62.63 213.46 62.85 214.31 62.85C215.16 62.85 215.82 62.63 216.29 62.19C216.76 61.74 216.99 61.07 216.99 60.19V52.98H218.28V60.17C218.28 61 218.11 61.71 217.78 62.28C217.46 62.85 217 63.28 216.39 63.58C215.8 63.86 215.1 64 214.31 64Z" fill="#F0EAE6"/>
  <path id="{kda.foundation.color.text.brand.wordmark.inverse.default}" d="M224.24 64C223.46 64 222.76 63.86 222.14 63.59C221.53 63.31 221.05 62.89 220.69 62.34C220.34 61.77 220.17 61.06 220.17 60.21V59.89H221.44V60.21C221.44 61.11 221.7 61.78 222.22 62.21C222.75 62.65 223.43 62.87 224.24 62.87C225.05 62.87 225.71 62.68 226.16 62.3C226.6 61.92 226.82 61.43 226.82 60.85C226.82 60.46 226.72 60.14 226.52 59.9C226.32 59.66 226.04 59.47 225.68 59.33C225.32 59.18 224.9 59.04 224.42 58.92C224.24 58.88 223.98 58.81 223.63 58.72C223 58.56 222.45 58.36 221.97 58.12C221.49 57.89 221.11 57.58 220.83 57.2C220.57 56.81 220.44 56.31 220.44 55.69C220.44 55.07 220.59 54.56 220.89 54.12C221.19 53.68 221.61 53.34 222.15 53.09C222.71 52.86 223.34 52.74 224.05 52.74C224.76 52.74 225.43 52.87 226.01 53.12C226.59 53.37 227.04 53.74 227.36 54.24C227.7 54.72 227.87 55.34 227.87 56.08V56.73H226.6V56.08C226.6 55.56 226.49 55.13 226.27 54.81C226.05 54.49 225.74 54.25 225.36 54.1C224.98 53.95 224.54 53.87 224.05 53.87C223.35 53.87 222.79 54.02 222.36 54.34C221.93 54.65 221.71 55.09 221.71 55.67C221.71 56.05 221.8 56.36 221.98 56.61C222.16 56.84 222.42 57.04 222.76 57.2C223.1 57.34 223.5 57.47 223.97 57.58C224.15 57.63 224.41 57.7 224.76 57.79C225.39 57.92 225.95 58.1 226.44 58.33C226.94 58.56 227.34 58.88 227.64 59.28C227.94 59.67 228.09 60.18 228.09 60.82C228.09 61.46 227.93 62.02 227.61 62.49C227.29 62.96 226.84 63.33 226.26 63.61C225.68 63.86 225.01 63.99 224.24 63.99V64Z" fill="#F0EAE6"/>
</svg>
