<svg width="163" height="46" viewBox="0 0 163 46"
  xmlns="http://www.w3.org/2000/svg">
  <path id="{kda.foundation.color.icon.brand.logo.default}" d="M38.872 37.6404H25.3233L25.3142 37.6335L25.2076 37.5513L8.41687 24.3654L15.2888 18.8213L38.7586 37.5513L38.872 37.6404Z" fill="#4A9079"/>
  <path id="{kda.foundation.color.icon.brand.logo.default}" d="M38.872 0H25.3233L25.3142 0.00684745L25.2076 0.0890168L8.41687 13.2749L15.2888 18.8214L38.7586 0.0890168L38.872 0Z" fill="#4A9079"/>
  <path id="{kda.foundation.color.icon.brand.logo.default}" d="M8.41917 19.6567V37.5514V37.6404L8.4101 37.6336L8.30574 37.5514L0.138391 31.0532L0.117973 31.0372L0 30.9459V6.69452L0.117973 6.60322L0.138391 6.58725L8.30801 0.0890168L8.41237 0.00684745L8.42144 0V13.2726V13.2886V19.6567H8.41917Z" fill="#4A9079"/>
  <path id="{kda.foundation.color.text.brand.wordmark.default}" d="M45.4785 30.0216V7.6167H48.8861V16.9292H49.4125C50.7986 15.3886 53.5551 12.2844 57.6887 7.6167H62.1513C60.4769 9.47236 57.1419 13.1494 52.1417 18.6479C53.875 20.5424 57.337 24.3336 62.5233 30.0238H57.9065C56.5022 28.4398 53.6708 25.274 49.4147 20.5241H48.8884V30.0238H45.4808L45.4785 30.0216Z" fill="#0F0F0F"/>
  <path id="{kda.foundation.color.text.brand.wordmark.default}" d="M63.449 30.0216C64.5017 26.2943 66.6093 18.8237 69.7696 7.6167H75.8134C76.8661 11.344 78.976 18.8146 82.134 30.0216H78.6017C78.3521 29.1474 77.8689 27.3876 77.1452 24.7399H68.4379C68.211 25.6141 67.7232 27.3739 66.9813 30.0216H63.449ZM69.3068 21.5535H76.2785C75.7408 19.5746 74.6655 15.6465 73.0569 9.77365H72.5306C71.9929 11.732 70.9176 15.6602 69.309 21.5535H69.3068Z" fill="#0F0F0F"/>
  <path id="{kda.foundation.color.text.brand.wordmark.default}" d="M84.3075 30.0216V7.6167H93.2008C96.1547 7.6167 98.4166 8.37905 99.9865 9.8969C101.577 11.4193 102.373 13.6995 102.373 16.7398V20.9281C102.373 23.9912 101.577 26.2714 99.9865 27.771C98.4166 29.2706 96.1547 30.0193 93.2008 30.0193H84.3075V30.0216ZM87.7786 26.8968H93.2326C95.1542 26.8968 96.5789 26.4084 97.5114 25.4292C98.4415 24.4295 98.9044 22.9595 98.9044 21.0217V16.6142C98.9044 14.6559 98.4393 13.1974 97.5114 12.2387C96.5812 11.2824 95.1565 10.803 93.2326 10.803H87.7786V26.8968Z" fill="#0F0F0F"/>
  <path id="{kda.foundation.color.text.brand.wordmark.default}" d="M106.246 30.0216V7.6167H120.221V10.7734H109.653V17.178H119.354V20.3347H109.653V26.8968H120.375V30.0216H106.244H106.246Z" fill="#0F0F0F"/>
  <path id="{kda.foundation.color.text.brand.wordmark.default}" d="M123.974 30.0216V7.6167H130.575C131.567 10.9697 133.57 17.6688 136.588 27.7094H137.114V7.6167H140.492V30.0216H133.89C132.899 26.6686 130.895 19.9604 127.878 9.8969H127.352V30.0216H123.974Z" fill="#0F0F0F"/>
  <path id="{kda.foundation.color.text.brand.wordmark.default}" d="M143.494 30.0216C144.548 26.2943 146.654 18.8237 149.814 7.6167H155.858C156.911 11.344 159.018 18.8146 162.179 30.0216H158.646C158.397 29.1474 157.913 27.3876 157.19 24.7399H148.482C148.256 25.6141 147.768 27.3739 147.026 30.0216H143.494ZM149.349 21.5535H156.321C155.783 19.5746 154.71 15.6465 153.099 9.77365H152.573C152.035 11.732 150.96 15.6602 149.351 21.5535H149.349Z" fill="#0F0F0F"/>
  <path id="{kda.foundation.color.text.brand.wordmark.default}" d="M96.6877 45.2593V37.5879H99.6008C100.061 37.5879 100.472 37.6769 100.835 37.8549C101.189 38.033 101.472 38.2863 101.686 38.615C101.899 38.9505 102.006 39.35 102.006 39.8133V39.9525C102.006 40.4159 101.897 40.813 101.677 41.1394C101.463 41.475 101.178 41.7306 100.815 41.9109C100.454 42.0821 100.048 42.1666 99.603 42.1666H97.6043V45.2593H96.69H96.6877ZM97.602 41.3334H99.5055C99.9955 41.3334 100.381 41.2125 100.665 40.9705C100.948 40.7286 101.091 40.3817 101.091 39.932V39.8247C101.091 39.3819 100.951 39.0373 100.665 38.7862C100.388 38.5443 100.002 38.4233 99.5055 38.4233H97.602V41.3334Z" fill="#0F0F0F"/>
  <path id="{kda.foundation.color.text.brand.wordmark.default}" d="M103.228 45.2593V37.5879H106.312C106.779 37.5879 107.194 37.6701 107.555 37.8344C107.916 37.9987 108.197 38.2338 108.394 38.5397C108.601 38.8387 108.703 39.2039 108.703 39.6307V39.7494C108.703 40.2561 108.583 40.6555 108.342 40.9477C108.102 41.2399 107.818 41.4362 107.491 41.5366V41.6872C107.754 41.6941 107.97 41.7808 108.14 41.9429C108.31 42.1049 108.394 42.3537 108.394 42.6801V45.2593H107.491V42.7988C107.491 42.5774 107.43 42.4062 107.31 42.2852C107.196 42.1711 107.019 42.1141 106.779 42.1141H104.143V45.2593H103.228ZM104.143 41.281H106.228C106.724 41.281 107.11 41.16 107.387 40.918C107.657 40.6761 107.791 40.3337 107.791 39.8909V39.8156C107.791 39.3796 107.657 39.0373 107.387 38.7885C107.117 38.5465 106.731 38.4256 106.228 38.4256H104.143V41.2832V41.281Z" fill="#0F0F0F"/>
  <path id="{kda.foundation.color.text.brand.wordmark.default}" d="M112.864 45.4099C111.956 45.4099 111.232 45.1451 110.695 44.6179C110.148 44.0906 109.876 43.3191 109.876 42.308V40.5528C109.876 39.5325 110.148 38.7587 110.695 38.2315C111.235 37.7042 111.956 37.4395 112.864 37.4395C113.771 37.4395 114.504 37.7042 115.044 38.2315C115.591 38.7587 115.863 39.5325 115.863 40.5528V42.308C115.863 43.3214 115.591 44.0906 115.044 44.6179C114.504 45.1451 113.778 45.4099 112.864 45.4099ZM112.864 44.5973C113.524 44.5973 114.034 44.3965 114.395 43.9993C114.763 43.5999 114.949 43.0475 114.949 42.3399V40.5208C114.949 39.8087 114.765 39.2517 114.395 38.8523C114.034 38.4597 113.524 38.2634 112.864 38.2634C112.203 38.2634 111.704 38.4597 111.344 38.8523C110.976 39.2517 110.79 39.8087 110.79 40.5208V42.3399C110.79 43.0452 110.974 43.5999 111.344 43.9993C111.704 44.3987 112.213 44.5973 112.864 44.5973Z" fill="#0F0F0F"/>
  <path id="{kda.foundation.color.text.brand.wordmark.default}" d="M120.148 45.4099C119.241 45.4099 118.517 45.1451 117.98 44.6179C117.433 44.0906 117.161 43.3191 117.161 42.308V40.5528C117.161 39.5325 117.433 38.7587 117.98 38.2315C118.519 37.7042 119.241 37.4395 120.148 37.4395C121.056 37.4395 121.789 37.7042 122.329 38.2315C122.875 38.7587 123.148 39.5325 123.148 40.5528V42.308C123.148 43.3214 122.875 44.0906 122.329 44.6179C121.789 45.1451 121.063 45.4099 120.148 45.4099ZM120.148 44.5973C120.809 44.5973 121.319 44.3965 121.68 43.9993C122.047 43.5999 122.233 43.0475 122.233 42.3399V40.5208C122.233 39.8087 122.05 39.2517 121.68 38.8523C121.319 38.4597 120.809 38.2634 120.148 38.2634C119.488 38.2634 118.989 38.4597 118.628 38.8523C118.261 39.2517 118.075 39.8087 118.075 40.5208V42.3399C118.075 43.0452 118.259 43.5999 118.628 43.9993C118.989 44.3987 119.497 44.5973 120.148 44.5973Z" fill="#0F0F0F"/>
  <path id="{kda.foundation.color.text.brand.wordmark.default}" d="M124.668 45.2593V37.5879H129.273V38.4233H125.582V41.0025H128.974V41.8265H125.582V45.2616H124.668V45.2593Z" fill="#0F0F0F"/>
  <path id="{kda.foundation.color.text.brand.wordmark.default}" d="M136.111 45.4099C135.204 45.4099 134.48 45.1451 133.942 44.6179C133.395 44.0906 133.123 43.3191 133.123 42.308V40.5528C133.123 39.5325 133.395 38.7587 133.942 38.2315C134.482 37.7042 135.204 37.4395 136.111 37.4395C137.019 37.4395 137.751 37.7042 138.291 38.2315C138.838 38.7587 139.11 39.5325 139.11 40.5528V42.308C139.11 43.3214 138.838 44.0906 138.291 44.6179C137.751 45.1451 137.025 45.4099 136.111 45.4099ZM136.111 44.5973C136.771 44.5973 137.282 44.3965 137.642 43.9993C138.01 43.5999 138.196 43.0475 138.196 42.3399V40.5208C138.196 39.8087 138.012 39.2517 137.642 38.8523C137.282 38.4597 136.771 38.2634 136.111 38.2634C135.451 38.2634 134.952 38.4597 134.591 38.8523C134.223 39.2517 134.037 39.8087 134.037 40.5208V42.3399C134.037 43.0452 134.221 43.5999 134.591 43.9993C134.952 44.3987 135.46 44.5973 136.111 44.5973Z" fill="#0F0F0F"/>
  <path id="{kda.foundation.color.text.brand.wordmark.default}" d="M140.63 45.2593V37.5879H145.236V38.4233H141.545V41.0025H144.936V41.8265H141.545V45.2616H140.63V45.2593Z" fill="#0F0F0F"/>
  <path id="{kda.foundation.color.text.brand.wordmark.default}" d="M152.062 45.4099C151.495 45.4099 151.003 45.3094 150.583 45.1109C150.157 44.9032 149.832 44.6019 149.605 44.2024C149.372 43.7893 149.254 43.2849 149.254 42.6937V37.5901H150.157V42.7051C150.157 43.3328 150.322 43.8076 150.656 44.1271C150.989 44.4421 151.457 44.5973 152.06 44.5973C152.664 44.5973 153.131 44.4398 153.464 44.1271C153.798 43.8053 153.964 43.3328 153.964 42.7051V37.5901H154.878V42.6937C154.878 43.2849 154.76 43.7847 154.526 44.191C154.299 44.5973 153.97 44.9032 153.537 45.1109C153.12 45.3117 152.625 45.4099 152.058 45.4099H152.062Z" fill="#0F0F0F"/>
  <path id="{kda.foundation.color.text.brand.wordmark.default}" d="M159.102 45.4099C158.549 45.4099 158.054 45.314 157.614 45.12C157.181 44.9192 156.838 44.6247 156.582 44.2321C156.334 43.8259 156.21 43.3237 156.21 42.7234V42.4997H157.113V42.7234C157.113 43.3648 157.296 43.8395 157.666 44.1454C158.043 44.4604 158.521 44.6156 159.102 44.6156C159.683 44.6156 160.144 44.4809 160.463 44.2093C160.777 43.9377 160.931 43.5953 160.931 43.1822C160.931 42.9037 160.86 42.68 160.718 42.5089C160.575 42.3377 160.377 42.203 160.123 42.1026C159.869 41.9953 159.57 41.8994 159.229 41.8127C159.102 41.7853 158.914 41.7374 158.667 41.6735C158.22 41.5593 157.827 41.4178 157.487 41.2444C157.147 41.08 156.877 40.8632 156.679 40.5916C156.495 40.3131 156.402 39.957 156.402 39.5211C156.402 39.0851 156.509 38.7222 156.722 38.4072C156.936 38.0923 157.233 37.8503 157.616 37.6791C158.013 37.5148 158.462 37.4326 158.966 37.4326C159.47 37.4326 159.948 37.5216 160.359 37.6997C160.77 37.8777 161.09 38.1425 161.316 38.4917C161.557 38.8341 161.677 39.27 161.677 39.7973V40.2583H160.774V39.7973C160.774 39.4275 160.697 39.1262 160.541 38.898C160.384 38.6697 160.168 38.5031 159.892 38.3958C159.622 38.2885 159.313 38.2361 158.966 38.2361C158.469 38.2361 158.07 38.3456 157.764 38.567C157.457 38.7884 157.305 39.1011 157.305 39.5074C157.305 39.779 157.369 40.0004 157.496 40.1716C157.623 40.3359 157.809 40.4752 158.05 40.5893C158.29 40.6897 158.578 40.7787 158.912 40.8563C159.039 40.8929 159.227 40.9431 159.474 41.007C159.921 41.1006 160.318 41.2284 160.665 41.3927C161.019 41.5571 161.303 41.7807 161.516 42.0661C161.729 42.3445 161.836 42.7074 161.836 43.1571C161.836 43.6067 161.723 44.0085 161.496 44.344C161.269 44.6795 160.949 44.942 160.538 45.136C160.128 45.314 159.649 45.403 159.102 45.403V45.4099Z" fill="#0F0F0F"/>
</svg>
