<svg data-style="kdacolor" width="264" height="64" viewBox="0 0 264 64"
  xmlns="http://www.w3.org/2000/svg">
  <path d="M98.0042 16.6946C98.3905 15.2539 99.151 12.3686 100.286 8.03851C100.761 8.03851 101.706 8.03851 103.123 8.03851C103.501 9.47918 104.262 12.3645 105.405 16.6946C105.123 16.6946 104.564 16.6946 103.727 16.6946C103.646 16.3807 103.489 15.7449 103.256 14.7871C102.741 14.7871 101.71 14.7871 100.165 14.7871C100.085 15.109 99.9277 15.7449 99.6943 16.6946C99.4126 16.6946 98.8492 16.6946 98.0042 16.6946ZM100.539 13.278C100.926 13.278 101.702 13.278 102.869 13.278C102.692 12.5778 102.342 11.1734 101.819 9.06468C101.779 9.06468 101.702 9.06468 101.59 9.06468C101.421 9.7649 101.071 11.1693 100.539 13.278Z" fill="#F0EAE6" id="{kda.foundation.color.text.brand.wordmark.inverse.default}" />
  <path d="M90.3259 16.6946C90.3259 15.2539 90.3259 12.3686 90.3259 8.03851C90.841 8.03851 91.8752 8.03851 93.4286 8.03851C93.7103 9.29406 94.2817 11.8092 95.1429 15.5839C95.1831 15.5839 95.2556 15.5839 95.3602 15.5839C95.3602 14.3283 95.3602 11.8132 95.3602 8.03851C95.6338 8.03851 96.1691 8.03851 96.9659 8.03851C96.9659 9.47918 96.9659 12.3645 96.9659 16.6946C96.4508 16.6946 95.4165 16.6946 93.8632 16.6946C93.5815 15.439 93.0101 12.9239 92.1489 9.14919C92.1167 9.14919 92.0443 9.14919 91.9316 9.14919C91.9316 10.4128 91.9316 12.9279 91.9316 16.6946C91.6579 16.6946 91.1227 16.6946 90.3259 16.6946Z" fill="#F0EAE6" id="{kda.foundation.color.text.brand.wordmark.inverse.default}" />
  <path d="M83.4807 16.6946C83.4807 15.2539 83.4807 12.3686 83.4807 8.03851C84.4063 8.03851 86.2574 8.03851 89.0341 8.03851C89.0341 8.28801 89.0341 8.78299 89.0341 9.52344C88.3822 9.52344 87.0743 9.52344 85.1105 9.52344C85.1105 9.86953 85.1105 10.5577 85.1105 11.5879C85.7061 11.5879 86.9013 11.5879 88.6961 11.5879C88.6961 11.8374 88.6961 12.3323 88.6961 13.0728C88.0924 13.0728 86.8973 13.0728 85.1105 13.0728C85.1105 13.4269 85.1105 14.1392 85.1105 15.2096C85.7785 15.2096 87.1146 15.2096 89.1186 15.2096C89.1186 15.4591 89.1186 15.9541 89.1186 16.6946C88.177 16.6946 86.2977 16.6946 83.4807 16.6946Z" fill="#F0EAE6" id="{kda.foundation.color.text.brand.wordmark.inverse.default}" />
  <path d="M74.9937 16.6946C74.9937 16.4531 74.9937 15.9742 74.9937 15.2579C74.9937 14.2921 74.9937 12.3645 74.9937 9.47515C74.9937 9.2337 74.9937 8.75482 74.9937 8.03851C75.5892 8.03851 76.7764 8.03851 78.5551 8.03851C79.714 8.03851 80.5994 8.33228 81.211 8.91981C81.8147 9.5154 82.1165 10.3927 82.1165 11.5516C82.1165 11.9138 82.1165 12.4571 82.1165 13.1814C82.1165 14.3485 81.8147 15.2257 81.211 15.8133C80.5994 16.4008 79.714 16.6946 78.5551 16.6946C77.7663 16.6946 76.5792 16.6946 74.9937 16.6946ZM76.6235 15.2096C76.9534 15.2096 77.6054 15.2096 78.5792 15.2096C79.2392 15.2096 79.7221 15.0366 80.0279 14.6905C80.3338 14.3444 80.4867 13.8575 80.4867 13.2297C80.4867 12.8434 80.4867 12.2679 80.4867 11.5034C80.4867 10.8675 80.3338 10.3806 80.0279 10.0426C79.7221 9.69648 79.2392 9.52344 78.5792 9.52344C78.1446 9.52344 77.4927 9.52344 76.6235 9.52344C76.6235 10.4732 76.6235 12.3686 76.6235 15.2096Z" fill="#F0EAE6" id="{kda.foundation.color.text.brand.wordmark.inverse.default}" />
  <path d="M66.8086 16.6946C67.1949 15.2539 67.9555 12.3686 69.0903 8.03851C69.5652 8.03851 70.5109 8.03851 71.9274 8.03851C72.3057 9.47918 73.0662 12.3645 74.2091 16.6946C73.9274 16.6946 73.368 16.6946 72.531 16.6946C72.4505 16.3807 72.2936 15.7449 72.0602 14.7871C71.5451 14.7871 70.5149 14.7871 68.9696 14.7871C68.8891 15.109 68.7322 15.7449 68.4988 16.6946C68.2171 16.6946 67.6537 16.6946 66.8086 16.6946ZM69.3438 13.278C69.7302 13.278 70.5068 13.278 71.6739 13.278C71.4968 12.5778 71.1467 11.1734 70.6235 9.06468C70.5833 9.06468 70.5068 9.06468 70.3942 9.06468C70.2251 9.7649 69.875 11.1693 69.3438 13.278Z" fill="#F0EAE6" id="{kda.foundation.color.text.brand.wordmark.inverse.default}" />
  <path d="M59.6736 16.6946C59.6736 15.2539 59.6736 12.3686 59.6736 8.03851C59.9392 8.03851 60.4824 8.03851 61.3034 8.03851C61.3034 8.60995 61.3034 9.75685 61.3034 11.4792C61.3356 11.4792 61.408 11.4792 61.5207 11.4792C61.9875 10.9078 62.9251 9.76087 64.3336 8.03851C64.6797 8.03851 65.3759 8.03851 66.4222 8.03851C65.8185 8.75482 64.6153 10.1754 62.8125 12.3001C63.4322 13.0325 64.6757 14.4974 66.5429 16.6946C66.1807 16.6946 65.4644 16.6946 64.394 16.6946C63.9111 16.107 62.9533 14.936 61.5207 13.1814C61.4885 13.1814 61.4161 13.1814 61.3034 13.1814C61.3034 13.769 61.3034 14.94 61.3034 16.6946C61.0297 16.6946 60.4865 16.6946 59.6736 16.6946Z" fill="#F0EAE6" id="{kda.foundation.color.text.brand.wordmark.inverse.default}" />
  <path d="M252.81 46.5313V28.7961H256.862V31.752H257.047C257.37 30.7282 257.925 29.9392 258.71 29.3849C259.503 28.823 260.407 28.5421 261.423 28.5421C261.654 28.5421 261.912 28.5536 262.197 28.5767C262.489 28.5921 262.732 28.619 262.924 28.6575V32.5025C262.747 32.4409 262.466 32.387 262.081 32.3408C261.704 32.2869 261.339 32.26 260.984 32.26C260.222 32.26 259.537 32.4255 258.929 32.7565C258.329 33.0798 257.855 33.5301 257.509 34.1074C257.163 34.6847 256.989 35.3506 256.989 36.1049V46.5313H252.81Z" fill="#F0EAE6" id="{kda.foundation.color.text.brand.wordmark.inverse.default}" />
  <path d="M241.387 46.8777C239.609 46.8777 238.073 46.5082 236.78 45.7693C235.495 45.0226 234.506 43.968 233.813 42.6055C233.12 41.2354 232.774 39.6227 232.774 37.7676C232.774 35.9433 233.12 34.3422 233.813 32.9643C234.513 31.5787 235.491 30.5011 236.746 29.7313C238 28.9539 239.474 28.5651 241.168 28.5651C242.261 28.5651 243.292 28.7422 244.262 29.0963C245.24 29.4426 246.102 29.9815 246.849 30.7128C247.603 31.444 248.196 32.3754 248.627 33.507C249.058 34.6308 249.273 35.9702 249.273 37.5251V38.8068H234.737V35.9895H245.267C245.259 35.1889 245.086 34.4769 244.747 33.8534C244.409 33.2222 243.935 32.7257 243.327 32.3639C242.727 32.0021 242.026 31.8212 241.226 31.8212C240.371 31.8212 239.621 32.029 238.974 32.4447C238.327 32.8527 237.823 33.3915 237.462 34.0612C237.107 34.7232 236.927 35.4506 236.919 36.2435V38.7029C236.919 39.7343 237.107 40.6196 237.485 41.3585C237.862 42.0898 238.389 42.6517 239.066 43.0443C239.744 43.4292 240.537 43.6216 241.445 43.6216C242.053 43.6216 242.604 43.537 243.096 43.3676C243.589 43.1906 244.016 42.9327 244.378 42.594C244.74 42.2553 245.013 41.8358 245.198 41.3354L249.1 41.7742C248.854 42.8057 248.384 43.7063 247.692 44.4761C247.007 45.2381 246.129 45.8308 245.059 46.2542C243.989 46.6699 242.765 46.8777 241.387 46.8777Z" fill="#F0EAE6" id="{kda.foundation.color.text.brand.wordmark.inverse.default}" />
  <path d="M231.247 28.7961L224.931 46.5314H220.312L213.996 28.7961H218.453L222.529 41.9705H222.714L226.801 28.7961H231.247Z" fill="#F0EAE6" id="{kda.foundation.color.text.brand.wordmark.inverse.default}" />
  <path d="M202.473 46.8893C201.349 46.8893 200.337 46.6891 199.436 46.2889C198.544 45.8809 197.835 45.2805 197.312 44.4876C196.796 43.6948 196.538 42.7172 196.538 41.5548C196.538 40.5541 196.723 39.7266 197.093 39.0724C197.462 38.4181 197.966 37.8946 198.605 37.502C199.244 37.1095 199.964 36.8131 200.764 36.613C201.573 36.4051 202.408 36.255 203.27 36.1627C204.309 36.0549 205.152 35.9587 205.799 35.874C206.445 35.7816 206.915 35.6431 207.207 35.4583C207.507 35.2659 207.658 34.9695 207.658 34.5693V34.5C207.658 33.6301 207.4 32.9566 206.884 32.4794C206.368 32.0021 205.625 31.7635 204.655 31.7635C203.632 31.7635 202.82 31.9867 202.219 32.4332C201.626 32.8796 201.226 33.4069 201.018 34.015L197.116 33.4608C197.424 32.3831 197.932 31.4825 198.64 30.7589C199.348 30.0277 200.214 29.4811 201.238 29.1194C202.261 28.7499 203.393 28.5651 204.632 28.5651C205.487 28.5651 206.337 28.6652 207.184 28.8653C208.031 29.0655 208.804 29.3965 209.505 29.8583C210.205 30.3125 210.767 30.9321 211.191 31.7173C211.622 32.5024 211.837 33.4839 211.837 34.6616V46.5313H207.819V44.095H207.681C207.427 44.5877 207.069 45.0495 206.607 45.4806C206.153 45.904 205.579 46.2465 204.886 46.5082C204.201 46.7623 203.397 46.8893 202.473 46.8893ZM203.559 43.8179C204.398 43.8179 205.125 43.6524 205.741 43.3214C206.357 42.9827 206.83 42.5363 207.161 41.982C207.5 41.4278 207.669 40.8236 207.669 40.1693V38.0794C207.538 38.1871 207.315 38.2872 206.999 38.3796C206.691 38.4719 206.345 38.5528 205.96 38.622C205.575 38.6913 205.194 38.7529 204.817 38.8068C204.44 38.8607 204.113 38.9069 203.836 38.9453C203.212 39.03 202.654 39.1686 202.161 39.361C201.669 39.5535 201.28 39.8229 200.995 40.1693C200.71 40.508 200.568 40.9467 200.568 41.4855C200.568 42.2553 200.849 42.8365 201.411 43.2291C201.973 43.6216 202.689 43.8179 203.559 43.8179Z" fill="#F0EAE6" id="{kda.foundation.color.text.brand.wordmark.inverse.default}" />
  <path d="M185.947 46.8777C184.169 46.8777 182.634 46.5082 181.34 45.7693C180.055 45.0226 179.066 43.968 178.373 42.6055C177.68 41.2354 177.334 39.6227 177.334 37.7676C177.334 35.9433 177.68 34.3422 178.373 32.9643C179.073 31.5787 180.051 30.5011 181.306 29.7313C182.56 28.9539 184.035 28.5651 185.728 28.5651C186.821 28.5651 187.853 28.7422 188.822 29.0963C189.8 29.4426 190.662 29.9815 191.409 30.7128C192.163 31.444 192.756 32.3754 193.187 33.507C193.618 34.6308 193.834 35.9702 193.834 37.5251V38.8068H179.297V35.9895H189.827C189.819 35.1889 189.646 34.4769 189.307 33.8534C188.969 33.2222 188.495 32.7257 187.887 32.3639C187.287 32.0021 186.586 31.8212 185.786 31.8212C184.931 31.8212 184.181 32.029 183.534 32.4447C182.888 32.8527 182.383 33.3915 182.022 34.0612C181.667 34.7232 181.487 35.4506 181.479 36.2435V38.7029C181.479 39.7343 181.667 40.6196 182.045 41.3585C182.422 42.0898 182.949 42.6517 183.627 43.0443C184.304 43.4292 185.097 43.6216 186.005 43.6216C186.613 43.6216 187.164 43.537 187.656 43.3676C188.149 43.1906 188.576 42.9327 188.938 42.594C189.3 42.2553 189.573 41.8358 189.758 41.3354L193.66 41.7742C193.414 42.8057 192.944 43.7063 192.252 44.4761C191.567 45.2381 190.689 45.8308 189.619 46.2542C188.549 46.6699 187.325 46.8777 185.947 46.8777Z" fill="#F0EAE6" id="{kda.foundation.color.text.brand.wordmark.inverse.default}" />
  <path d="M155.052 46.5314L150.041 28.7961H154.301L157.419 41.2662H157.581L160.767 28.7961H164.982L168.169 41.1969H168.342L171.413 28.7961H175.685L170.663 46.5314H166.31L162.984 34.5462H162.742L159.416 46.5314H155.052Z" fill="#F0EAE6" id="{kda.foundation.color.text.brand.wordmark.inverse.default}" />
  <path d="M135.758 36.1396V46.5313H131.578V28.7961H135.573V31.8097H135.781C136.189 30.8167 136.839 30.0277 137.732 29.4427C138.633 28.8576 139.745 28.5651 141.069 28.5651C142.293 28.5651 143.359 28.8268 144.268 29.3503C145.184 29.8737 145.892 30.6319 146.392 31.6249C146.9 32.6179 147.15 33.8226 147.143 35.2389V46.5313H142.963V35.8855C142.963 34.7001 142.655 33.7726 142.039 33.1029C141.431 32.4332 140.588 32.0983 139.511 32.0983C138.779 32.0983 138.129 32.26 137.559 32.5833C136.997 32.8989 136.555 33.3569 136.231 33.9573C135.916 34.5577 135.758 35.2851 135.758 36.1396Z" fill="#F0EAE6" id="{kda.foundation.color.text.brand.wordmark.inverse.default}" />
  <path d="M123.1 46.5313V28.7961H127.28V46.5313H123.1ZM125.202 26.2789C124.54 26.2789 123.97 26.0596 123.493 25.6208C123.015 25.1743 122.777 24.6394 122.777 24.0159C122.777 23.3846 123.015 22.8497 123.493 22.4109C123.97 21.9644 124.54 21.7412 125.202 21.7412C125.871 21.7412 126.441 21.9644 126.91 22.4109C127.388 22.8497 127.626 23.3846 127.626 24.0159C127.626 24.6394 127.388 25.1743 126.91 25.6208C126.441 26.0596 125.871 26.2789 125.202 26.2789Z" fill="#F0EAE6" id="{kda.foundation.color.text.brand.wordmark.inverse.default}" />
  <path d="M109.533 46.8893C108.409 46.8893 107.397 46.6891 106.497 46.2889C105.604 45.8809 104.895 45.2805 104.372 44.4876C103.856 43.6948 103.598 42.7172 103.598 41.5548C103.598 40.5541 103.783 39.7266 104.153 39.0724C104.522 38.4181 105.026 37.8946 105.665 37.502C106.304 37.1095 107.024 36.8131 107.824 36.613C108.633 36.4051 109.468 36.255 110.33 36.1627C111.369 36.0549 112.212 35.9587 112.859 35.874C113.505 35.7816 113.975 35.6431 114.267 35.4583C114.567 35.2659 114.718 34.9695 114.718 34.5693V34.5C114.718 33.6301 114.46 32.9566 113.944 32.4794C113.428 32.0021 112.685 31.7635 111.716 31.7635C110.692 31.7635 109.88 31.9867 109.279 32.4332C108.687 32.8796 108.286 33.4069 108.078 34.015L104.176 33.4608C104.484 32.3831 104.992 31.4825 105.7 30.7589C106.408 30.0277 107.274 29.4811 108.298 29.1194C109.322 28.7499 110.453 28.5651 111.692 28.5651C112.547 28.5651 113.397 28.6652 114.244 28.8653C115.091 29.0655 115.865 29.3965 116.565 29.8583C117.265 30.3125 117.827 30.9321 118.251 31.7173C118.682 32.5024 118.897 33.4839 118.897 34.6616V46.5313H114.879V44.095H114.741C114.487 44.5877 114.129 45.0495 113.667 45.4806C113.213 45.904 112.639 46.2465 111.946 46.5082C111.261 46.7623 110.457 46.8893 109.533 46.8893ZM110.619 43.8179C111.458 43.8179 112.185 43.6524 112.801 43.3214C113.417 42.9827 113.89 42.5363 114.221 41.982C114.56 41.4278 114.729 40.8236 114.729 40.1693V38.0794C114.598 38.1871 114.375 38.2872 114.059 38.3796C113.752 38.4719 113.405 38.5528 113.02 38.622C112.635 38.6913 112.254 38.7529 111.877 38.8068C111.5 38.8607 111.173 38.9069 110.896 38.9453C110.272 39.03 109.714 39.1686 109.221 39.361C108.729 39.5535 108.34 39.8229 108.055 40.1693C107.77 40.508 107.628 40.9467 107.628 41.4855C107.628 42.2553 107.909 42.8365 108.471 43.2291C109.033 43.6216 109.749 43.8179 110.619 43.8179Z" fill="#F0EAE6" id="{kda.foundation.color.text.brand.wordmark.inverse.default}" />
  <path d="M88.6688 36.1395V46.5313H84.489V22.8843H88.5764V31.8096H88.7843C89.1999 30.809 89.8427 30.02 90.7125 29.4426C91.5901 28.8576 92.7062 28.5651 94.061 28.5651C95.2926 28.5651 96.3664 28.823 97.2824 29.3387C98.1984 29.8545 98.9066 30.6088 99.407 31.6018C99.915 32.5948 100.169 33.8072 100.169 35.2389V46.5313H95.9892V35.8855C95.9892 34.6924 95.6813 33.7648 95.0655 33.1028C94.4574 32.4332 93.603 32.0983 92.5022 32.0983C91.7632 32.0983 91.1013 32.26 90.5162 32.5833C89.9389 32.8989 89.4848 33.3569 89.1538 33.9573C88.8305 34.5577 88.6688 35.2851 88.6688 36.1395Z" fill="#F0EAE6" id="{kda.foundation.color.text.brand.wordmark.inverse.default}" />
  <path d="M80.7509 30.8629H76.4326C76.3094 30.1547 76.0823 29.5274 75.7513 28.9808C75.4203 28.4266 75.0085 27.9571 74.5159 27.5722C74.0232 27.1873 73.4613 26.8986 72.8301 26.7062C72.2066 26.5061 71.533 26.406 70.8095 26.406C69.524 26.406 68.3847 26.7293 67.3917 27.3759C66.3987 28.0148 65.6213 28.9539 65.0594 30.1932C64.4974 31.4248 64.2165 32.9297 64.2165 34.7079C64.2165 36.5168 64.4974 38.0409 65.0594 39.2802C65.629 40.5118 66.4064 41.4433 67.3917 42.0745C68.3847 42.698 69.5201 43.0097 70.7979 43.0097C71.5061 43.0097 72.1681 42.9173 72.7839 42.7326C73.4074 42.5402 73.9655 42.2592 74.4581 41.8897C74.9585 41.5202 75.378 41.0661 75.7167 40.5272C76.0631 39.9884 76.3017 39.3726 76.4326 38.6798L80.7509 38.7029C80.5893 39.8268 80.239 40.8813 79.7002 41.8666C79.1691 42.8519 78.4724 43.7217 77.6103 44.4761C76.7482 45.2228 75.7398 45.8078 74.5851 46.2312C73.4305 46.6468 72.1489 46.8547 70.7402 46.8547C68.6618 46.8547 66.8067 46.3736 65.1748 45.4114C63.5429 44.4492 62.2574 43.0598 61.3183 41.2431C60.3792 39.4265 59.9097 37.2481 59.9097 34.7079C59.9097 32.1599 60.3831 29.9815 61.3299 28.1726C62.2767 26.356 63.566 24.9665 65.1979 24.0043C66.8298 23.0421 68.6772 22.561 70.7402 22.561C72.0565 22.561 73.2804 22.7458 74.412 23.1153C75.5435 23.4847 76.5519 24.0274 77.4371 24.7433C78.3223 25.4515 79.0498 26.3213 79.6194 27.3528C80.1967 28.3766 80.5739 29.5466 80.7509 30.8629Z" fill="#F0EAE6" id="{kda.foundation.color.text.brand.wordmark.inverse.default}" />
  <path d="M257.168 61.7236H256.308L259.578 52.7332H260.456L263.727 61.7236H262.866L260.048 53.7999H259.987L257.168 61.7236ZM257.787 58.2775H262.247V59.015H257.787V58.2775Z" fill="#F0EAE6" id="{kda.foundation.color.text.brand.wordmark.inverse.default}" />
  <path d="M248.029 61.7236V52.7332H248.849V56.8552H253.95V52.7332H254.771V61.7236H253.95V57.5927H248.849V61.7236H248.029Z" fill="#F0EAE6" id="{kda.foundation.color.text.brand.wordmark.inverse.default}" />
  <path d="M240.302 61.7236V52.7332H243.204C243.842 52.7332 244.375 52.8561 244.802 53.1019C245.232 53.3448 245.556 53.6755 245.772 54.094C245.992 54.5125 246.101 54.9837 246.101 55.5075C246.101 56.0314 245.993 56.504 245.777 56.9255C245.56 57.344 245.238 57.6761 244.811 57.922C244.384 58.1649 243.852 58.2863 243.217 58.2863H240.935V57.5488H243.195C243.667 57.5488 244.057 57.461 244.368 57.2854C244.678 57.1069 244.909 56.864 245.061 56.5567C245.216 56.2494 245.294 55.8997 245.294 55.5075C245.294 55.1154 245.216 54.7657 245.061 54.4584C244.909 54.1511 244.676 53.9096 244.363 53.734C244.053 53.5584 243.659 53.4707 243.182 53.4707H241.123V61.7236H240.302Z" fill="#F0EAE6" id="{kda.foundation.color.text.brand.wordmark.inverse.default}" />
  <path d="M233.349 61.7236V52.7332H234.17V60.9861H238.454V61.7236H233.349Z" fill="#F0EAE6" id="{kda.foundation.color.text.brand.wordmark.inverse.default}" />
  <path d="M225.25 61.7236H224.389L227.66 52.7332H228.538L231.808 61.7236H230.948L228.129 53.7999H228.068L225.25 61.7236ZM225.869 58.2775H230.329V59.015H225.869V58.2775Z" fill="#F0EAE6" id="{kda.foundation.color.text.brand.wordmark.inverse.default}" />
  <path d="M216.711 61.8465C216.158 61.8465 215.664 61.747 215.227 61.548C214.791 61.3461 214.446 61.0666 214.191 60.7095C213.937 60.3525 213.802 59.9413 213.788 59.476H214.617C214.632 59.8037 214.733 60.0906 214.92 60.3364C215.107 60.5793 215.356 60.7695 215.666 60.9071C215.977 61.0417 216.322 61.109 216.702 61.109C217.118 61.109 217.484 61.0314 217.8 60.8763C218.119 60.7212 218.368 60.5091 218.546 60.2398C218.728 59.9676 218.818 59.6603 218.818 59.3179C218.818 58.955 218.726 58.6346 218.542 58.3566C218.357 58.0785 218.093 57.862 217.747 57.7069C217.405 57.5517 216.995 57.4742 216.518 57.4742H215.991V56.7367H216.518C216.907 56.7367 217.251 56.6665 217.55 56.526C217.851 56.3826 218.088 56.1821 218.261 55.9246C218.434 55.667 218.52 55.3641 218.52 55.0159C218.52 54.6852 218.445 54.394 218.296 54.1423C218.147 53.8906 217.936 53.6931 217.664 53.5497C217.395 53.4063 217.08 53.3346 216.72 53.3346C216.372 53.3346 216.053 53.4019 215.763 53.5365C215.473 53.6711 215.239 53.8613 215.061 54.1072C214.885 54.353 214.791 54.6442 214.78 54.9808H213.985C213.997 54.5125 214.126 54.1013 214.371 53.7472C214.62 53.3902 214.949 53.1121 215.359 52.9131C215.772 52.7112 216.228 52.6102 216.729 52.6102C217.259 52.6102 217.717 52.7185 218.103 52.9351C218.489 53.1516 218.788 53.4399 218.998 53.7999C219.212 54.1569 219.319 54.5505 219.319 54.9808C219.319 55.4929 219.18 55.9319 218.902 56.2977C218.624 56.6606 218.249 56.9123 217.778 57.0528V57.1098C218.352 57.224 218.802 57.4786 219.13 57.8737C219.461 58.2658 219.626 58.7473 219.626 59.3179C219.626 59.7979 219.5 60.2296 219.249 60.6129C218.997 60.9934 218.652 61.2948 218.213 61.5173C217.777 61.7367 217.276 61.8465 216.711 61.8465Z" fill="#F0EAE6" id="{kda.foundation.color.text.brand.wordmark.inverse.default}" />
  <path d="M211.488 61.7894C211.316 61.7894 211.166 61.728 211.041 61.6051C210.918 61.4792 210.856 61.33 210.856 61.1573C210.856 60.9817 210.918 60.8324 211.041 60.7095C211.166 60.5866 211.316 60.5251 211.488 60.5251C211.664 60.5251 211.813 60.5866 211.936 60.7095C212.059 60.8324 212.12 60.9817 212.12 61.1573C212.12 61.2714 212.091 61.3768 212.033 61.4734C211.977 61.5699 211.901 61.6475 211.804 61.706C211.711 61.7616 211.605 61.7894 211.488 61.7894Z" fill="#F0EAE6" id="{kda.foundation.color.text.brand.wordmark.inverse.default}" />
  <path d="M204.123 52.7332L206.933 60.6569H207.012L209.821 52.7332H210.682L207.411 61.7236H206.533L203.263 52.7332H204.123Z" fill="#F0EAE6" id="{kda.foundation.color.text.brand.wordmark.inverse.default}" />
  
  <path d="M24.4197 27.0802V20.3096L30.2834 16.9243L36.1489 20.3096V27.0802L30.2834 30.4672L24.4197 27.0802Z" fill="#F0EAE6" id="{kda.foundation.color.brand.key.white}" />
  <path d="M12.6904 27.0808V20.3102L18.5542 16.9249L24.4197 20.3102V27.0808L18.5542 30.4678L12.6904 27.0808Z" fill="#F0EAE6" id="{kda.foundation.color.brand.key.white}" />
  <path d="M18.5591 30.4641V23.6936L24.4229 20.3083L30.2883 23.6936V30.4641L24.4229 33.8511L18.5591 30.4641Z" fill="#F0EAE6" id="{kda.foundation.color.brand.key.white}" />
  <path d="M18.5549 37.2365V30.4659L24.4187 27.0806L30.2842 30.4659V37.2365L24.4187 40.6235L18.5549 37.2365Z" fill="#F0EAE6" id="{kda.foundation.color.brand.key.white}" />
  
  <path d="M0.966064 40.6301V33.8595L6.82983 30.4742L12.6953 33.8595V40.6301L6.82983 44.0171L0.966064 40.6301Z" fill="#4A9079" id="{kda.foundation.color.icon.brand.logo.default}" />
  <path d="M0.966064 27.0854V20.3149L6.82983 16.9296L12.6953 20.3149V27.0854L6.82983 30.4724L0.966064 27.0854Z" fill="#4A9079" id="{kda.foundation.color.icon.brand.logo.default}" />
  <path d="M0.961182 20.3141V13.5435L6.82495 10.1582L12.6904 13.5435V20.3141L6.82495 23.701L0.961182 20.3141Z" fill="#4A9079" id="{kda.foundation.color.icon.brand.logo.default}" />
  <path d="M18.5574 10.152V3.38138L24.4211 -0.00390625L30.2866 3.38138V10.152L24.4211 13.5389L18.5574 10.152Z" fill="#4A9079" id="{kda.foundation.color.icon.brand.logo.default}" />
  <path d="M6.82983 16.9261V10.1555L12.6936 6.7702L18.5591 10.1555V16.9261L12.6936 20.313L6.82983 16.9261Z" fill="#4A9079" id="{kda.foundation.color.icon.brand.logo.default}" />
  <path d="M12.6936 47.4005V40.63L18.5574 37.2447L24.4228 40.63V47.4005L18.5574 50.7875L12.6936 47.4005Z" fill="#4A9079" id="{kda.foundation.color.icon.brand.logo.default}" />
  <path d="M18.5542 50.7792V44.0086L24.418 40.6234L30.2834 44.0086V50.7792L24.418 54.1662L18.5542 50.7792Z" fill="#4A9079" id="{kda.foundation.color.icon.brand.logo.default}" />
  <path d="M30.2852 16.9225V10.1519L36.1489 6.7666L42.0144 10.1519V16.9225L36.1489 20.3094L30.2852 16.9225Z" fill="#4A9079" id="{kda.foundation.color.icon.brand.logo.default}" />
  <path d="M36.1489 40.6246V33.854L42.0127 30.4688L47.8782 33.854V40.6246L42.0127 44.0116L36.1489 40.6246Z" fill="#4A9079" id="{kda.foundation.color.icon.brand.logo.default}" />
  <path d="M24.4211 47.3987V40.6281L30.2849 37.2429L36.1504 40.6281V47.3987L30.2849 50.7857L24.4211 47.3987Z" fill="#4A9079" id="{kda.foundation.color.icon.brand.logo.default}" />
  <path d="M36.1489 27.08V20.3094L42.0127 16.9241L47.8782 20.3094V27.08L42.0127 30.467L36.1489 27.08Z" fill="#4A9079" id="{kda.foundation.color.icon.brand.logo.default}" />
  <path d="M36.1479 20.3077V13.5371L42.0117 10.1518L47.8772 13.5371V20.3077L42.0117 23.6946L36.1479 20.3077Z" fill="#4A9079" id="{kda.foundation.color.icon.brand.logo.default}" />
</svg>
