<svg data-style="kdacolor" width="231" height="64" viewBox="0 0 231 64"
  xmlns="http://www.w3.org/2000/svg">
  <path id="{kda.foundation.color.icon.brand.logo.default}" d="M55.2988 53.2237H36.0246L36.0117 53.214L35.86 53.0978L11.9738 34.453L21.7497 26.6135L55.1375 53.0978L55.2988 53.2237Z" fill="#4A9079"/>
  <path id="{kda.foundation.color.icon.brand.logo.default}" d="M55.2988 0H36.0246L36.0117 0.0096823L35.86 0.12587L11.9738 18.7708L21.7497 26.6134L55.1375 0.12587L55.2988 0Z" fill="#4A9079"/>
  <path id="{kda.foundation.color.icon.brand.logo.default}" d="M11.977 27.7947V53.0977V53.2236L11.9641 53.2139L11.8156 53.0977L0.196873 43.9092L0.167827 43.8866L0 43.7575V9.46606L0.167827 9.33696L0.196873 9.31437L11.8189 0.12587L11.9673 0.0096823L11.9802 0V18.7675V18.7901V27.7947H11.977Z" fill="#4A9079"/>
  <path id="{kda.foundation.color.text.brand.wordmark.inverse.default}" d="M64.6971 42.4505V10.77H69.5447V23.9379H70.2935C72.2655 21.7594 76.1868 17.3701 82.0672 10.77H88.4155C86.0337 13.3939 81.2894 18.5933 74.1761 26.3682C76.6419 29.047 81.5669 34.4077 88.9448 42.4537H82.377C80.3792 40.2139 76.3514 35.7374 70.2967 29.0212H69.548V42.4537H64.7004L64.6971 42.4505Z" fill="#F0EAE6"/>
  <path id="{kda.foundation.color.text.brand.wordmark.inverse.default}" d="M90.2616 42.4505C91.7592 37.1801 94.7574 26.6167 99.2533 10.77H107.851C109.349 16.0404 112.35 26.6038 116.843 42.4505H111.818C111.463 41.2144 110.775 38.726 109.746 34.9822H97.3587C97.036 36.2183 96.3421 38.7067 95.2867 42.4505H90.2616ZM98.5949 30.4767H108.513C107.748 27.6785 106.218 22.1241 103.93 13.8199H103.181C102.416 16.5891 100.886 22.1435 98.5981 30.4767H98.5949Z" fill="#F0EAE6"/>
  <path id="{kda.foundation.color.text.brand.wordmark.inverse.default}" d="M119.935 42.4505V10.77H132.586C136.788 10.77 140.006 11.848 142.239 13.9942C144.502 16.1469 145.635 19.3711 145.635 23.6701V29.5924C145.635 33.9236 144.502 37.1478 142.239 39.2683C140.006 41.3887 136.788 42.4473 132.586 42.4473H119.935V42.4505ZM124.873 38.0321H132.631C135.365 38.0321 137.392 37.3415 138.718 35.9569C140.042 34.5433 140.7 32.4648 140.7 29.7247V23.4926C140.7 20.7234 140.038 18.6611 138.718 17.3056C137.395 15.9533 135.368 15.2755 132.631 15.2755H124.873V38.0321Z" fill="#F0EAE6"/>
  <path id="{kda.foundation.color.text.brand.wordmark.inverse.default}" d="M151.144 42.4505V10.77H171.025V15.2336H155.992V24.2897H169.792V28.7533H155.992V38.0321H171.244V42.4505H151.141H151.144Z" fill="#F0EAE6"/>
  <path id="{kda.foundation.color.text.brand.wordmark.inverse.default}" d="M176.363 42.4505V10.77H185.755C187.165 15.5111 190.015 24.9836 194.308 39.1811H195.056V10.77H199.862V42.4505H190.47C189.06 37.7094 186.21 28.224 181.917 13.9942H181.169V42.4505H176.363Z" fill="#F0EAE6"/>
  <path id="{kda.foundation.color.text.brand.wordmark.inverse.default}" d="M204.132 42.4505C205.633 37.1801 208.628 26.6167 213.124 10.77H221.721C223.219 16.0404 226.217 26.6038 230.713 42.4505H225.688C225.333 41.2144 224.645 38.726 223.616 34.9822H211.229C210.906 36.2183 210.212 38.7067 209.157 42.4505H204.132ZM212.462 30.4767H222.38C221.615 27.6785 220.088 22.1241 217.797 13.8199H217.048C216.283 16.5891 214.753 22.1435 212.465 30.4767H212.462Z" fill="#F0EAE6"/>
  <path id="{kda.foundation.color.text.brand.wordmark.inverse.default}" d="M116.004 64V53.1526H118.486C118.96 54.8276 119.919 58.1712 121.361 63.1835H121.574C122.049 61.5084 123.007 58.1648 124.45 53.1526H126.932V64H125.676V54.0143H125.463C124.979 55.6797 124.021 59.0072 122.588 64H120.348C119.864 62.3346 118.905 59.0072 117.472 54.0143H117.259V64H116.004Z" fill="#F0EAE6"/>
  <path id="{kda.foundation.color.text.brand.wordmark.inverse.default}" d="M128.562 64C129.117 62.1959 130.23 58.5779 131.905 53.1526H134.19C134.755 54.9567 135.875 58.5747 137.55 64H136.188C136.056 63.5449 135.778 62.6348 135.355 61.2631H130.74C130.598 61.7182 130.321 62.6283 129.907 64H128.562ZM131.056 60.0819H135.02C134.707 59.062 134.087 57.0158 133.157 53.9401H132.932C132.618 54.9696 131.992 57.0158 131.056 60.0819Z" fill="#F0EAE6"/>
  <path id="{kda.foundation.color.text.brand.wordmark.inverse.default}" d="M139.167 64V53.1526H143.553C144.218 53.1526 144.808 53.2688 145.322 53.5012C145.835 53.7335 146.235 54.066 146.516 54.4984C146.809 54.9212 146.955 55.4376 146.955 56.0411V56.209C146.955 56.9255 146.784 57.4903 146.442 57.9034C146.099 58.3165 145.696 58.594 145.231 58.736V58.9491C145.606 58.9587 145.912 59.0814 146.154 59.3105C146.396 59.5397 146.516 59.8915 146.516 60.353V64H145.231V60.5208C145.231 60.2078 145.144 59.9657 144.973 59.7946C144.812 59.6333 144.56 59.5526 144.218 59.5526H140.468V64H139.167ZM140.468 58.3746H143.434C144.14 58.3746 144.689 58.2035 145.083 57.8614C145.467 57.5193 145.657 57.0352 145.657 56.4091V56.3026C145.657 55.6861 145.467 55.202 145.083 54.8502C144.699 54.5081 144.15 54.3371 143.434 54.3371H140.468V58.3778V58.3746Z" fill="#F0EAE6"/>
  <path id="{kda.foundation.color.text.brand.wordmark.inverse.default}" d="M148.94 64V53.1526H151.421C151.896 54.8276 152.854 58.1712 154.297 63.1835H154.51C154.985 61.5084 155.943 58.1648 157.386 53.1526H159.868V64H158.612V54.0143H158.399C157.915 55.6797 156.957 59.0072 155.524 64H153.284C152.8 62.3346 151.841 59.0072 150.408 54.0143H150.195V64H148.94Z" fill="#F0EAE6"/>
  <path id="{kda.foundation.color.text.brand.wordmark.inverse.default}" d="M161.498 64C162.053 62.1959 163.166 58.5779 164.841 53.1526H167.126C167.691 54.9567 168.811 58.5747 170.486 64H169.124C168.992 63.5449 168.714 62.6348 168.291 61.2631H163.676C163.534 61.7182 163.256 62.6283 162.843 64H161.498ZM163.992 60.0819H167.956C167.643 59.062 167.023 57.0158 166.093 53.9401H165.867C165.554 54.9696 164.928 57.0158 163.992 60.0819Z" fill="#F0EAE6"/>
  <path id="{kda.foundation.color.text.brand.wordmark.inverse.default}" d="M172.103 64V53.1526H173.404V62.8187H178.88V64H172.103Z" fill="#F0EAE6"/>
  <path id="{kda.foundation.color.text.brand.wordmark.inverse.default}" d="M179.71 64C180.265 62.1959 181.379 58.5779 183.054 53.1526H185.339C185.903 54.9567 187.023 58.5747 188.698 64H187.336C187.204 63.5449 186.926 62.6348 186.504 61.2631H181.888C181.746 61.7182 181.469 62.6283 181.056 64H179.71ZM182.208 60.0819H186.171C185.858 59.062 185.239 57.0158 184.309 53.9401H184.083C183.77 54.9696 183.144 57.0158 182.208 60.0819Z" fill="#F0EAE6"/>
  <path id="{kda.foundation.color.text.brand.wordmark.inverse.default}" d="M189.802 64V53.1526H194.037C195.46 53.1526 196.557 53.5141 197.335 54.2435C198.122 54.9696 198.516 56.0799 198.516 57.5709V59.5816C198.516 61.0953 198.122 62.2088 197.335 62.9253C196.557 63.6417 195.46 64 194.037 64H189.802ZM191.103 62.822H194.037C195.085 62.822 195.876 62.5638 196.412 62.0506C196.957 61.5375 197.228 60.7338 197.228 59.6462V57.529C197.228 56.4187 196.957 55.6119 196.412 55.1084C195.876 54.6049 195.085 54.3532 194.037 54.3532H191.103V62.8252V62.822Z" fill="#F0EAE6"/>
  <path id="{kda.foundation.color.text.brand.wordmark.inverse.default}" d="M200.588 64V53.1526H207.259V54.3338H201.889V57.9647H206.837V59.1298H201.889V62.822H207.337V64.0032H200.588V64Z" fill="#F0EAE6"/>
  <path id="{kda.foundation.color.text.brand.wordmark.inverse.default}" d="M215.718 64C215.173 62.1959 214.085 58.5779 212.452 53.1526H213.798C214.292 54.8276 215.276 58.1809 216.748 63.2125H216.961C217.445 61.5375 218.429 58.1842 219.911 53.1526H221.257C220.711 54.9567 219.624 58.5747 217.991 64H215.722H215.718Z" fill="#F0EAE6"/>
  <path id="{kda.foundation.color.text.brand.wordmark.inverse.default}" d="M222.464 64.0001V62.8641C222.464 62.0862 222.599 61.4666 222.874 61.0018C223.158 60.5371 223.538 60.1691 224.023 59.898C224.516 59.6043 225.101 59.3526 225.778 59.1428C225.969 59.0912 226.256 59.0073 226.64 58.8846C227.105 58.7426 227.511 58.5683 227.866 58.3553C228.209 58.1423 228.483 57.8777 228.683 57.5549C228.873 57.2225 228.97 56.8191 228.97 56.3446V56.2833C228.97 55.5991 228.735 55.0569 228.26 54.6631C227.786 54.2694 227.176 54.0725 226.43 54.0725C225.685 54.0725 225.013 54.2791 224.51 54.6922C224.016 55.115 223.768 55.7508 223.768 56.5996V56.8126H222.528V56.6157C222.528 55.8282 222.699 55.1569 223.041 54.6051C223.384 54.0596 223.848 53.653 224.432 53.3786C225.026 53.0849 225.694 52.9397 226.43 52.9397C227.166 52.9397 227.837 53.0817 228.412 53.3625C228.986 53.6336 229.435 54.0177 229.758 54.5115C230.071 55.0053 230.226 55.5862 230.226 56.251V56.3866C230.226 57.0934 230.09 57.6711 229.816 58.1262C229.532 58.5909 229.145 58.9685 228.651 59.2622C228.167 59.5463 227.592 59.7915 226.927 60.0045C226.747 60.0659 226.469 60.1498 226.095 60.2627C225.572 60.4338 225.133 60.6113 224.778 60.792C224.436 60.9631 224.177 61.189 224.006 61.473C223.826 61.757 223.735 62.1347 223.735 62.6091V62.8673H230.135V64.0033H222.464V64.0001Z" fill="#F0EAE6"/>
</svg>