<svg width="1201" height="331" viewBox="0 0 1201 331" fill="none" xmlns="http://www.w3.org/2000/svg">
  <path d="M143.23 0.752441L107.499 21.391L107.489 62.6477L143.23 83.2864L178.961 62.6477V21.391L143.23 0.752441Z" fill="#F5F5F5"/>
  <path d="M143.231 330.857L107.5 310.228V268.961L71.7693 289.59L36.0382 268.961V227.694L108.397 185.912L107.5 145.16L36.0279 185.912L0.296875 165.799V124.532L107.5 62.6368L143.231 83.2651L178.962 62.6368L286.166 124.532V165.799C286.166 165.799 249.754 186.778 250.095 186.603C250.435 186.427 178.962 145.707 178.962 145.707L179.859 185.912L250.435 227.694V268.961L214.704 289.353L178.973 268.961V310.228L143.242 330.857H143.231Z" fill="#4A9079"/>
  <path d="M358.045 103.455C358.045 94.6761 358.045 77.0935 358.045 50.7073C359.664 50.7073 362.974 50.7073 367.977 50.7073C367.977 54.1895 367.977 61.1784 367.977 71.674C368.173 71.674 368.614 71.674 369.301 71.674C372.146 68.1918 377.859 61.2029 386.442 50.7073C388.551 50.7073 392.794 50.7073 399.17 50.7073C395.491 55.0723 388.159 63.7287 377.173 76.6766C380.949 81.1397 388.527 90.0659 399.905 103.455C397.698 103.455 393.333 103.455 386.81 103.455C383.867 99.8749 378.031 92.7388 369.301 82.047C369.105 82.047 368.664 82.047 367.977 82.047C367.977 85.6273 367.977 92.7633 367.977 103.455C366.309 103.455 362.999 103.455 358.045 103.455ZM401.524 103.455C403.878 94.6761 408.513 77.0935 415.428 50.7073C418.322 50.7073 424.084 50.7073 432.716 50.7073C435.021 59.4863 439.656 77.0689 446.621 103.455C444.904 103.455 441.495 103.455 436.395 103.455C435.904 101.542 434.948 97.6678 433.526 91.8315C430.387 91.8315 424.109 91.8315 414.692 91.8315C414.202 93.7933 413.245 97.6678 411.823 103.455C410.107 103.455 406.673 103.455 401.524 103.455ZM416.973 82.6356C419.327 82.6356 424.06 82.6356 431.171 82.6356C430.092 78.3686 427.959 69.8103 424.771 56.9605C424.526 56.9605 424.06 56.9605 423.373 56.9605C422.343 61.2274 420.21 69.7858 416.973 82.6356ZM451.402 103.455C451.402 101.984 451.402 99.0656 451.402 94.7006C451.402 88.8152 451.402 77.0689 451.402 59.4618C451.402 57.9905 451.402 55.0723 451.402 50.7073C455.032 50.7073 462.266 50.7073 473.105 50.7073C480.167 50.7073 485.562 52.4974 489.29 56.0777C492.968 59.707 494.807 65.0529 494.807 72.1154C494.807 74.3224 494.807 77.633 494.807 82.047C494.807 89.1585 492.968 94.5044 489.29 98.0847C485.562 101.665 480.167 103.455 473.105 103.455C468.298 103.455 461.064 103.455 451.402 103.455ZM461.334 94.4063C463.345 94.4063 467.317 94.4063 473.252 94.4063C477.274 94.4063 480.216 93.3519 482.08 91.2429C483.944 89.134 484.876 86.1668 484.876 82.3413C484.876 79.9871 484.876 76.4804 484.876 71.8211C484.876 67.9466 483.944 64.9794 482.08 62.9195C480.216 60.8105 477.274 59.7561 473.252 59.7561C470.603 59.7561 466.631 59.7561 461.334 59.7561C461.334 65.5434 461.334 77.0935 461.334 94.4063ZM503.12 103.455C503.12 94.6761 503.12 77.0935 503.12 50.7073C508.76 50.7073 520.041 50.7073 536.961 50.7073C536.961 52.2277 536.961 55.2439 536.961 59.7561C532.989 59.7561 525.019 59.7561 513.052 59.7561C513.052 61.865 513.052 66.0584 513.052 72.3361C516.681 72.3361 523.964 72.3361 534.901 72.3361C534.901 73.8565 534.901 76.8728 534.901 81.3849C531.223 81.3849 523.94 81.3849 513.052 81.3849C513.052 83.5429 513.052 87.8834 513.052 94.4063C517.123 94.4063 525.264 94.4063 537.476 94.4063C537.476 95.9267 537.476 98.943 537.476 103.455C531.738 103.455 520.286 103.455 503.12 103.455ZM544.833 103.455C544.833 94.6761 544.833 77.0935 544.833 50.7073C547.972 50.7073 554.274 50.7073 563.74 50.7073C565.456 58.3583 568.939 73.6848 574.186 96.6869C574.432 96.6869 574.873 96.6869 575.511 96.6869C575.511 89.0359 575.511 73.7094 575.511 50.7073C577.178 50.7073 580.44 50.7073 585.295 50.7073C585.295 59.4863 585.295 77.0689 585.295 103.455C582.156 103.455 575.854 103.455 566.388 103.455C564.672 95.8041 561.19 80.4776 555.942 57.4755C555.746 57.4755 555.304 57.4755 554.618 57.4755C554.618 65.1755 554.618 80.5021 554.618 103.455C552.95 103.455 549.688 103.455 544.833 103.455ZM591.622 103.455C593.976 94.6761 598.611 77.0935 605.526 50.7073C608.42 50.7073 614.183 50.7073 622.815 50.7073C625.12 59.4863 629.754 77.0689 636.719 103.455C635.002 103.455 631.594 103.455 626.493 103.455C626.002 101.542 625.046 97.6678 623.624 91.8315C620.485 91.8315 614.207 91.8315 604.791 91.8315C604.3 93.7933 603.344 97.6678 601.921 103.455C600.205 103.455 596.772 103.455 591.622 103.455ZM607.071 82.6356C609.425 82.6356 614.158 82.6356 621.27 82.6356C620.191 78.3686 618.057 69.8103 614.869 56.9605C614.624 56.9605 614.158 56.9605 613.471 56.9605C612.442 61.2274 610.308 69.7858 607.071 82.6356Z" fill="#F5F5F5"/>
  <path d="M441.455 178.006C440.798 171.861 438.03 167.076 433.152 163.652C428.32 160.228 422.035 158.516 414.295 158.516C408.854 158.516 404.187 159.336 400.293 160.978C396.4 162.62 393.421 164.848 391.358 167.662C389.294 170.477 388.238 173.69 388.191 177.302C388.191 180.304 388.871 182.907 390.232 185.112C391.639 187.317 393.539 189.193 395.931 190.741C398.323 192.242 400.974 193.508 403.882 194.54C406.79 195.572 409.722 196.44 412.677 197.144L426.186 200.521C431.627 201.788 436.858 203.5 441.877 205.657C446.943 207.815 451.469 210.536 455.456 213.819C459.49 217.103 462.68 221.066 465.025 225.71C467.371 230.354 468.543 235.795 468.543 242.034C468.543 250.477 466.386 257.912 462.07 264.338C457.755 270.718 451.516 275.713 443.354 279.325C435.239 282.89 425.412 284.673 413.873 284.673C402.662 284.673 392.929 282.937 384.673 279.466C376.464 275.995 370.038 270.929 365.394 264.268C360.797 257.607 358.311 249.492 357.936 239.923H383.618C383.993 244.942 385.541 249.117 388.262 252.447C390.982 255.778 394.524 258.264 398.886 259.906C403.295 261.547 408.221 262.368 413.662 262.368C419.338 262.368 424.31 261.524 428.578 259.835C432.894 258.1 436.271 255.707 438.71 252.658C441.15 249.563 442.393 245.951 442.44 241.823C442.393 238.07 441.29 234.974 439.133 232.535C436.975 230.049 433.949 227.985 430.056 226.343C426.21 224.655 421.707 223.154 416.547 221.84L400.153 217.619C388.285 214.57 378.904 209.949 372.008 203.758C365.16 197.519 361.736 189.24 361.736 178.92C361.736 170.43 364.034 162.995 368.631 156.616C373.275 150.236 379.584 145.288 387.558 141.77C395.532 138.205 404.562 136.422 414.647 136.422C424.873 136.422 433.832 138.205 441.525 141.77C449.265 145.288 455.339 150.19 459.748 156.475C464.158 162.714 466.433 169.891 466.573 178.006H441.455ZM490.69 323.019V174.417H515.738V192.289H517.216C518.529 189.662 520.382 186.871 522.774 183.916C525.166 180.914 528.403 178.357 532.484 176.246C536.565 174.089 541.772 173.01 548.104 173.01C556.454 173.01 563.982 175.144 570.69 179.413C577.445 183.634 582.792 189.897 586.732 198.199C590.719 206.455 592.713 216.587 592.713 228.595C592.713 240.463 590.766 250.548 586.873 258.85C582.98 267.153 577.679 273.485 570.971 277.848C564.264 282.21 556.665 284.391 548.174 284.391C541.983 284.391 536.846 283.359 532.765 281.295C528.684 279.231 525.401 276.745 522.915 273.837C520.476 270.882 518.576 268.091 517.216 265.464H516.16V323.019H490.69ZM515.668 228.454C515.668 235.443 516.653 241.565 518.623 246.818C520.64 252.072 523.525 256.176 527.277 259.132C531.077 262.04 535.674 263.494 541.068 263.494C546.697 263.494 551.411 261.993 555.21 258.991C559.01 255.942 561.871 251.791 563.795 246.537C565.765 241.237 566.75 235.209 566.75 228.454C566.75 221.747 565.788 215.789 563.865 210.583C561.942 205.376 559.08 201.295 555.281 198.34C551.481 195.385 546.744 193.907 541.068 193.907C535.627 193.907 531.006 195.338 527.207 198.199C523.407 201.06 520.523 205.071 518.552 210.231C516.629 215.391 515.668 221.465 515.668 228.454ZM614.525 282.491V174.417H639.995V282.491H614.525ZM627.33 159.078C623.296 159.078 619.825 157.742 616.917 155.068C614.009 152.347 612.555 149.087 612.555 145.288C612.555 141.441 614.009 138.181 616.917 135.508C619.825 132.787 623.296 131.427 627.33 131.427C631.411 131.427 634.882 132.787 637.744 135.508C640.652 138.181 642.106 141.441 642.106 145.288C642.106 149.087 640.652 152.347 637.744 155.068C634.882 157.742 631.411 159.078 627.33 159.078ZM666.187 282.491V174.417H690.884V192.43H692.01C693.98 186.191 697.357 181.383 702.142 178.006C706.973 174.581 712.485 172.869 718.676 172.869C720.084 172.869 721.655 172.94 723.391 173.08C725.173 173.174 726.651 173.338 727.823 173.573V197.003C726.744 196.628 725.032 196.299 722.687 196.018C720.389 195.69 718.16 195.525 716.003 195.525C711.359 195.525 707.184 196.534 703.478 198.551C699.82 200.521 696.935 203.265 694.824 206.783C692.713 210.301 691.658 214.359 691.658 218.956V282.491H666.187ZM788.14 284.602C777.305 284.602 767.947 282.351 760.066 277.848C752.233 273.298 746.205 266.871 741.983 258.569C737.762 250.219 735.651 240.392 735.651 229.088C735.651 217.971 737.762 208.214 741.983 199.817C746.252 191.374 752.209 184.807 759.855 180.116C767.501 175.379 776.484 173.01 786.803 173.01C793.464 173.01 799.75 174.089 805.66 176.246C811.617 178.357 816.871 181.641 821.421 186.097C826.018 190.553 829.63 196.229 832.257 203.124C834.883 209.973 836.197 218.135 836.197 227.61V235.42H747.612V218.252H811.781C811.735 213.374 810.679 209.035 808.615 205.235C806.551 201.389 803.667 198.363 799.961 196.159C796.302 193.954 792.034 192.852 787.155 192.852C781.948 192.852 777.375 194.118 773.435 196.651C769.495 199.137 766.422 202.421 764.218 206.502C762.06 210.536 760.957 214.968 760.911 219.8V234.787C760.911 241.072 762.06 246.467 764.358 250.97C766.657 255.426 769.87 258.85 773.998 261.242C778.126 263.588 782.957 264.761 788.492 264.761C792.198 264.761 795.552 264.245 798.554 263.213C801.556 262.134 804.159 260.562 806.364 258.498C808.568 256.434 810.234 253.878 811.359 250.829L835.141 253.503C833.64 259.788 830.779 265.276 826.557 269.967C822.383 274.611 817.035 278.223 810.515 280.803C803.995 283.336 796.537 284.602 788.14 284.602ZM858.871 282.491V138.392H884.974V204.602H886.733L942.952 138.392H974.825L919.099 203.054L975.318 282.491H943.937L900.946 220.715L884.974 239.571V282.491H858.871ZM1031.75 284.602C1020.91 284.602 1011.55 282.351 1003.67 277.848C995.84 273.298 989.812 266.871 985.59 258.569C981.369 250.219 979.258 240.392 979.258 229.088C979.258 217.971 981.369 208.214 985.59 199.817C989.859 191.374 995.816 184.807 1003.46 180.116C1011.11 175.379 1020.09 173.01 1030.41 173.01C1037.07 173.01 1043.36 174.089 1049.27 176.246C1055.22 178.357 1060.48 181.641 1065.03 186.097C1069.62 190.553 1073.24 196.229 1075.86 203.124C1078.49 209.973 1079.8 218.135 1079.8 227.61V235.42H991.219V218.252H1055.39C1055.34 213.374 1054.29 209.035 1052.22 205.235C1050.16 201.389 1047.27 198.363 1043.57 196.159C1039.91 193.954 1035.64 192.852 1030.76 192.852C1025.56 192.852 1020.98 194.118 1017.04 196.651C1013.1 199.137 1010.03 202.421 1007.82 206.502C1005.67 210.536 1004.56 214.968 1004.52 219.8V234.787C1004.52 241.072 1005.67 246.467 1007.97 250.97C1010.26 255.426 1013.48 258.85 1017.6 261.242C1021.73 263.588 1026.56 264.761 1032.1 264.761C1035.8 264.761 1039.16 264.245 1042.16 263.213C1045.16 262.134 1047.77 260.562 1049.97 258.498C1052.18 256.434 1053.84 253.878 1054.97 250.829L1078.75 253.503C1077.25 259.788 1074.39 265.276 1070.16 269.967C1065.99 274.611 1060.64 278.223 1054.12 280.803C1047.6 283.336 1040.14 284.602 1031.75 284.602ZM1114.09 323.019C1110.62 323.019 1107.4 322.738 1104.45 322.175C1101.54 321.659 1099.22 321.049 1097.48 320.346L1103.39 300.504C1107.1 301.583 1110.4 302.099 1113.31 302.052C1116.22 302.005 1118.78 301.09 1120.98 299.308C1123.23 297.572 1125.13 294.664 1126.68 290.583L1128.86 284.743L1089.67 174.417H1116.69L1141.6 256.036H1142.72L1167.7 174.417H1194.79L1151.52 295.579C1149.5 301.301 1146.83 306.203 1143.5 310.284C1140.17 314.412 1136.09 317.555 1131.26 319.712C1126.47 321.917 1120.75 323.019 1114.09 323.019Z" fill="#F5F5F5"/>
</svg>
