<svg data-style="kdacolor" width="64" height="64" viewBox="0 0 64 64"
  xmlns="http://www.w3.org/2000/svg">
  <path id="{kda.foundation.color.brand.key.white}" d="M40.7125 45.9281L47.6806 49.3787L42.2231 53.3444L40.7125 45.9281Z" fill="#F5F5F5"/>
  <path id="{kda.foundation.color.brand.key.white}" d="M58.3587 41.6212L39.3894 39.4306L38.4381 34.76L56.1287 34.7587L58.3587 41.6212Z" fill="#F5F5F5"/>
  <path id="{kda.foundation.color.brand.key.white}" d="M16.3187 49.3775L23.2969 45.9281L21.8056 53.3656L16.3187 49.3775Z" fill="#F5F5F5"/>
  <path id="{kda.foundation.color.brand.key.white}" d="M24.6006 39.4306L5.64124 41.6212L7.86999 34.76H25.5381L24.6006 39.4306Z" fill="#F5F5F5"/>
  <path id="{kda.foundation.color.brand.key.white}" d="M52.5269 23.6737L38.4381 34.76L31.9881 32.5425L25.5381 34.76L11.4688 23.6862L13.5756 17.2019L24.5912 24.6037L28.6975 32.1812V10.6344H35.2781V31.5737L39.3844 24.6037L50.4212 17.1944L52.5269 23.6737Z" fill="#F5F5F5"/>
</svg>
