<svg data-style="kdacolor" width="193" height="64" viewBox="0 0 193 64" 
  xmlns="http://www.w3.org/2000/svg">
  <path id="{kda.foundation.color.icon.brand.logo.default}" d="M31.5043 40.4698L36.174 42.7822L32.5165 45.4401L31.5043 40.4698Z" fill="#4A9079"/>
  <path id="{kda.foundation.color.icon.brand.logo.default}" d="M43.3304 37.5833L30.6171 36.1147L29.9799 32.9849L41.836 32.9841L43.3304 37.5833Z" fill="#4A9079"/>
  <path id="{kda.foundation.color.icon.brand.logo.default}" d="M15.1556 42.7815L19.8327 40.4698L18.833 45.454L15.1556 42.7815Z" fill="#4A9079"/>
  <path id="{kda.foundation.color.icon.brand.logo.default}" d="M20.7066 36.1147L8 37.5833L9.4936 32.9849H21.3343L20.7066 36.1147Z" fill="#4A9079"/>
  <path id="{kda.foundation.color.icon.brand.logo.default}" d="M39.4222 25.5551L29.9799 32.9849L25.6571 31.4986L21.3343 32.9849L11.9053 25.5632L13.3173 21.2176L20.7 26.1784L23.452 31.2568V16.8162H27.8622V30.8496L30.6142 26.1784L38.0109 21.2125L39.4222 25.5551Z" fill="#4A9079"/>
  <path id="{kda.foundation.color.text.brand.wordmark.inverse.default}" d="M50.1622 13.4041V8H50.9892V10.2461H51.1168C51.4529 9.87395 52.1223 9.12571 53.1251 8H54.208C53.8018 8.44761 52.9928 9.33415 51.7789 10.6603C52.1998 11.1172 53.0396 12.0318 54.2982 13.4041H53.1779C52.8371 13.0219 52.1497 12.2583 51.1175 11.1126H50.9899V13.4041H50.1628H50.1622Z" fill="#F0EAE6"/>
  <path id="{kda.foundation.color.text.brand.wordmark.inverse.default}" d="M54.5234 13.4041C54.7792 12.5048 55.2903 10.703 56.0573 8H57.5237C57.7796 8.89923 58.2907 10.701 59.0576 13.4041H58.2005C58.1403 13.193 58.0221 12.7687 57.8471 12.13H55.7339C55.6791 12.3405 55.5609 12.7654 55.3805 13.4041H54.5234ZM55.945 11.3618H57.6373C57.507 10.8848 57.2458 9.93742 56.8556 8.52043H56.728C56.5978 8.99276 56.3372 9.94009 55.9464 11.3618H55.945Z" fill="#F0EAE6"/>
  <path id="{kda.foundation.color.text.brand.wordmark.inverse.default}" d="M59.5854 13.4041V8H61.7433C62.4601 8 63.0093 8.18372 63.3901 8.54983C63.7756 8.9166 63.9693 9.4671 63.9693 10.2V11.2101C63.9693 11.949 63.7762 12.4988 63.3901 12.8603C63.0093 13.2217 62.4601 13.4027 61.7433 13.4027H59.5854V13.4041ZM60.4272 12.6505H61.7506C62.2169 12.6505 62.5623 12.5329 62.7888 12.2964C63.0146 12.0552 63.1269 11.7011 63.1269 11.2335V10.1706C63.1269 9.69825 63.014 9.34617 62.7888 9.11502C62.563 8.88453 62.2176 8.76829 61.7506 8.76829H60.4272V12.6505Z" fill="#F0EAE6"/>
  <path id="{kda.foundation.color.text.brand.wordmark.inverse.default}" d="M64.9086 13.4041V8H68.3005V8.76161H65.7364V10.3069H68.0907V11.0685H65.7364V12.6511H68.3385V13.4054H64.9093L64.9086 13.4041Z" fill="#F0EAE6"/>
  <path id="{kda.foundation.color.text.brand.wordmark.inverse.default}" d="M69.2111 13.4041V8H70.8131C71.0536 8.80904 71.54 10.4244 72.2722 12.8462H72.3998V8H73.2195V13.4041H71.6175C71.377 12.595 70.8906 10.9769 70.1584 8.54983H70.0308V13.4041H69.2111Z" fill="#F0EAE6"/>
  <path id="{kda.foundation.color.text.brand.wordmark.inverse.default}" d="M73.9477 13.4041C74.2036 12.5048 74.7146 10.703 75.4816 8H76.948C77.2039 8.89923 77.715 10.701 78.4819 13.4041H77.6248C77.5647 13.193 77.4464 12.7687 77.2714 12.13H75.1589C75.1041 12.3405 74.9859 12.7654 74.8055 13.4041H73.9484H73.9477ZM75.3687 11.3618H77.0609C76.9307 10.8848 76.6701 9.93742 76.2793 8.52043H76.1517C76.0214 8.99276 75.7609 9.94009 75.37 11.3618H75.3687Z" fill="#F0EAE6"/>
  <path id="{kda.foundation.color.text.brand.wordmark.inverse.default}" d="M57.6718 42.394C55.9438 42.394 54.4185 42.0846 53.0958 41.466C51.7731 40.8473 50.7385 39.962 49.9918 38.81C49.2451 37.658 48.8718 36.2713 48.8718 34.65V33.754H53.0318V34.65C53.0318 35.994 53.4478 37.0073 54.2798 37.69C55.1118 38.3513 56.2425 38.682 57.6718 38.682C59.1225 38.682 60.1998 38.394 60.9038 37.818C61.6291 37.242 61.9918 36.506 61.9918 35.61C61.9918 34.9913 61.8105 34.49 61.4478 34.106C61.1065 33.722 60.5945 33.4126 59.9118 33.178C59.2505 32.922 58.4398 32.6873 57.4798 32.474L56.7438 32.314C55.2078 31.9726 53.8851 31.546 52.7758 31.034C51.6878 30.5006 50.8451 29.8073 50.2478 28.954C49.6718 28.1006 49.3838 26.9913 49.3838 25.626C49.3838 24.2606 49.7038 23.098 50.3438 22.138C51.0051 21.1566 51.9225 20.41 53.0958 19.898C54.2905 19.3646 55.6878 19.098 57.2878 19.098C58.8878 19.098 60.3065 19.3753 61.5438 19.93C62.8025 20.4633 63.7838 21.274 64.4878 22.362C65.2131 23.4286 65.5758 24.7726 65.5758 26.394V27.354H61.4158V26.394C61.4158 25.5406 61.2451 24.858 60.9038 24.346C60.5838 23.8126 60.1145 23.4286 59.4958 23.194C58.8771 22.938 58.1411 22.81 57.2878 22.81C56.0078 22.81 55.0585 23.0553 54.4398 23.546C53.8425 24.0153 53.5438 24.666 53.5438 25.498C53.5438 26.0526 53.6825 26.522 53.9598 26.906C54.2585 27.29 54.6958 27.61 55.2718 27.866C55.8478 28.122 56.5838 28.346 57.4798 28.538L58.2158 28.698C59.8158 29.0393 61.2025 29.4766 62.3758 30.01C63.5705 30.5433 64.4985 31.2473 65.1598 32.122C65.8211 32.9966 66.1518 34.1166 66.1518 35.482C66.1518 36.8473 65.7998 38.0526 65.0958 39.098C64.4131 40.122 63.4318 40.9326 62.1518 41.53C60.8931 42.106 59.3998 42.394 57.6718 42.394ZM69.4301 48.346V26.074H73.3981V27.994H73.9741C74.3367 27.3753 74.9021 26.8313 75.6701 26.362C76.4381 25.8713 77.5367 25.626 78.9661 25.626C80.2461 25.626 81.4301 25.946 82.5181 26.586C83.6061 27.2046 84.4807 28.122 85.1421 29.338C85.8034 30.554 86.1341 32.026 86.1341 33.754V34.266C86.1341 35.994 85.8034 37.466 85.1421 38.682C84.4807 39.898 83.6061 40.826 82.5181 41.466C81.4301 42.0846 80.2461 42.394 78.9661 42.394C78.0061 42.394 77.1954 42.2766 76.5341 42.042C75.8941 41.8286 75.3714 41.5513 74.9661 41.21C74.5821 40.8473 74.2727 40.4846 74.0381 40.122H73.4621V48.346H69.4301ZM77.7501 38.874C79.0087 38.874 80.0434 38.4793 80.8541 37.69C81.6861 36.8793 82.1021 35.706 82.1021 34.17V33.85C82.1021 32.314 81.6861 31.1513 80.8541 30.362C80.0221 29.5513 78.9874 29.146 77.7501 29.146C76.5127 29.146 75.4781 29.5513 74.6461 30.362C73.8141 31.1513 73.3981 32.314 73.3981 33.85V34.17C73.3981 35.706 73.8141 36.8793 74.6461 37.69C75.4781 38.4793 76.5127 38.874 77.7501 38.874ZM89.8363 41.946V26.074H93.8683V41.946H89.8363ZM91.8523 24.218C91.127 24.218 90.5083 23.9833 89.9963 23.514C89.5056 23.0446 89.2603 22.426 89.2603 21.658C89.2603 20.89 89.5056 20.2713 89.9963 19.802C90.5083 19.3326 91.127 19.098 91.8523 19.098C92.599 19.098 93.2176 19.3326 93.7083 19.802C94.199 20.2713 94.4443 20.89 94.4443 21.658C94.4443 22.426 94.199 23.0446 93.7083 23.514C93.2176 23.9833 92.599 24.218 91.8523 24.218ZM98.3363 41.946V26.074H102.304V27.866H102.88C103.115 27.226 103.499 26.7566 104.032 26.458C104.587 26.1593 105.227 26.01 105.952 26.01H107.872V29.594H105.888C104.864 29.594 104.022 29.8713 103.36 30.426C102.699 30.9593 102.368 31.7913 102.368 32.922V41.946H98.3363ZM117.693 42.394C116.115 42.394 114.717 42.0633 113.501 41.402C112.307 40.7193 111.368 39.77 110.685 38.554C110.024 37.3166 109.693 35.866 109.693 34.202V33.818C109.693 32.154 110.024 30.714 110.685 29.498C111.347 28.2606 112.275 27.3113 113.469 26.65C114.664 25.9673 116.051 25.626 117.629 25.626C119.187 25.626 120.541 25.978 121.693 26.682C122.845 27.3646 123.741 28.3246 124.381 29.562C125.021 30.778 125.341 32.1966 125.341 33.818V35.194H113.789C113.832 36.282 114.237 37.1673 115.005 37.85C115.773 38.5326 116.712 38.874 117.821 38.874C118.952 38.874 119.784 38.6286 120.317 38.138C120.851 37.6473 121.256 37.1033 121.533 36.506L124.829 38.234C124.531 38.7886 124.093 39.3966 123.517 40.058C122.963 40.698 122.216 41.2526 121.277 41.722C120.339 42.17 119.144 42.394 117.693 42.394ZM113.821 32.186H121.245C121.16 31.2686 120.787 30.5326 120.125 29.978C119.485 29.4233 118.643 29.146 117.597 29.146C116.509 29.146 115.645 29.4233 115.005 29.978C114.365 30.5326 113.971 31.2686 113.821 32.186ZM128.802 41.946V19.546H133.026V28.442H133.602L140.866 19.546H146.274L136.93 30.586L146.594 41.946H141.026L133.602 32.858H133.026V41.946H128.802ZM155.725 42.394C154.146 42.394 152.749 42.0633 151.533 41.402C150.338 40.7193 149.399 39.77 148.717 38.554C148.055 37.3166 147.725 35.866 147.725 34.202V33.818C147.725 32.154 148.055 30.714 148.717 29.498C149.378 28.2606 150.306 27.3113 151.501 26.65C152.695 25.9673 154.082 25.626 155.661 25.626C157.218 25.626 158.573 25.978 159.725 26.682C160.877 27.3646 161.773 28.3246 162.413 29.562C163.053 30.778 163.373 32.1966 163.373 33.818V35.194H151.821C151.863 36.282 152.269 37.1673 153.037 37.85C153.805 38.5326 154.743 38.874 155.853 38.874C156.983 38.874 157.815 38.6286 158.349 38.138C158.882 37.6473 159.287 37.1033 159.565 36.506L162.861 38.234C162.562 38.7886 162.125 39.3966 161.549 40.058C160.994 40.698 160.247 41.2526 159.309 41.722C158.37 42.17 157.175 42.394 155.725 42.394ZM151.853 32.186H159.277C159.191 31.2686 158.818 30.5326 158.157 29.978C157.517 29.4233 156.674 29.146 155.629 29.146C154.541 29.146 153.677 29.4233 153.037 29.978C152.397 30.5326 152.002 31.2686 151.853 32.186ZM168.689 48.346V44.826H177.329C177.927 44.826 178.225 44.506 178.225 43.866V39.866H177.649C177.479 40.2286 177.212 40.5913 176.849 40.954C176.487 41.3166 175.996 41.6153 175.377 41.85C174.759 42.0846 173.969 42.202 173.009 42.202C171.772 42.202 170.684 41.9246 169.745 41.37C168.828 40.794 168.113 40.0046 167.601 39.002C167.089 37.9993 166.833 36.8473 166.833 35.546V26.074H170.865V35.226C170.865 36.4206 171.153 37.3166 171.729 37.914C172.327 38.5113 173.169 38.81 174.257 38.81C175.495 38.81 176.455 38.4046 177.137 37.594C177.82 36.762 178.161 35.61 178.161 34.138V26.074H182.193V44.762C182.193 45.85 181.873 46.714 181.233 47.354C180.593 48.0153 179.74 48.346 178.673 48.346H168.689Z" fill="#F0EAE6"/>
  <path id="{kda.foundation.color.icon.brand.logo.default}" d="M164.582 45.0378H146.162V56H164.582V45.0378Z" fill="#4A9079"/>
  <path id="{kda.foundation.color.text.brand.wordmark.inverse.default}" d="M152.612 47.4923L153.31 48.5427V49.9309L152.596 50.6603H150.464V52.9817H149.515V47.4923H152.612ZM150.464 50.0482L150.903 49.7895H152.212L152.361 49.6406V48.7232L152.134 48.3781H150.464V50.0482Z" fill="#F0EAE6"/>
  <path id="{kda.foundation.color.text.brand.wordmark.inverse.default}" d="M154.385 48.6608L155.067 49.0609L155.451 48.6608H157.231L157.764 49.4609L157.034 49.955L156.767 49.5391H155.827L155.576 49.8061V52.1033H156.689V52.9816H153.843V52.1033H154.635V49.876L154.408 49.5391H153.843V48.6608H154.385Z" fill="#F0EAE6"/>
  <path id="{kda.foundation.color.text.brand.wordmark.inverse.default}" d="M159.035 48.6608H161.395L162.101 49.7113V52.2364L161.38 52.9816H159.028L158.315 51.9312V49.4061L159.036 48.6608H159.035ZM159.254 51.7582L159.481 52.095H161.003L161.144 51.9461V49.876L160.917 49.5391H159.403L159.254 49.7038V51.7582Z" fill="#F0EAE6"/>
</svg>